<svg width="577" height="148" viewBox="0 0 577 148" xmlns="http://www.w3.org/2000/svg"><title>logo</title><defs><linearGradient x1="0%" y1="0%" y2="100%" id="a"><stop stop-color="#003E73" offset="0%"/><stop stop-color="#002C51" offset="100%"/></linearGradient></defs><g fill="none" fill-rule="evenodd"><path d="M172.28 74.838l2.422-.269c1.077-.135 1.85-.303 2.322-.505.47-.202.706-.437.706-.706V36.225a.544.544 0 0 0-.101-.337c-.067-.089-.225-.178-.471-.269-.247-.089-.605-.168-1.076-.235a23.957 23.957 0 0 0-1.85-.169l-1.885-.269-.2-1.076h34.98l.47 13.791h-1.749l-.605-2.22c-.538-1.928-1.166-3.542-1.883-4.844-.719-1.3-1.627-2.354-2.726-3.161-1.098-.808-2.432-1.368-4.001-1.682-1.57-.313-3.477-.471-5.719-.471l-4.506.067v18.432l2.489-.067c2.645-.089 4.63-.493 5.953-1.211 1.323-.717 2.275-1.995 2.858-3.834l.74-2.153h1.413l-1.681 16.145-1.346-.067-.269-2.086c-.09-.986-.268-1.804-.537-2.455a3.463 3.463 0 0 0-1.313-1.581c-.605-.404-1.412-.706-2.422-.908-1.008-.202-2.299-.325-3.868-.37l-2.018-.067V74.3l5.583.202c2.332 0 4.328-.236 5.987-.707 1.66-.471 3.083-1.154 4.273-2.052a12.241 12.241 0 0 0 2.994-3.262c.806-1.278 1.501-2.725 2.084-4.339l.673-2.018h1.75L208 75.914h-35.923l.202-1.076zm42.11 0l2.558-.336c1.12-.09 1.883-.247 2.287-.472.403-.223.605-.447.605-.672V36.292a.698.698 0 0 0-.101-.37c-.067-.111-.213-.202-.437-.269a11.984 11.984 0 0 0-1.043-.236c-.471-.089-1.088-.156-1.85-.202l-1.951-.269-.201-1.076h20.719l-.202 1.076-3.296.337c-1.974.134-2.96.516-2.96 1.143V74.3l3.834.269c2.108 0 3.89-.212 5.349-.639 1.456-.426 2.746-1.087 3.867-1.985 1.12-.897 2.108-2.062 2.96-3.498.852-1.435 1.726-3.162 2.624-5.18l.807-2.22h1.749l-1.951 14.867h-33.568l.202-1.076zm39.287 0l2.556-.336c1.12-.09 1.883-.247 2.288-.472.402-.223.604-.447.604-.672V36.292a.698.698 0 0 0-.1-.37c-.067-.111-.213-.202-.438-.269a11.984 11.984 0 0 0-1.042-.236c-.471-.089-1.089-.156-1.85-.202l-1.951-.269-.202-1.076h20.72l-.202 1.076-3.296.337c-1.975.134-2.96.516-2.96 1.143V74.3l3.834.269c2.108 0 3.89-.212 5.349-.639 1.455-.426 2.745-1.087 3.866-1.985 1.121-.897 2.108-2.062 2.96-3.498.853-1.435 1.726-3.162 2.625-5.18l.807-2.22h1.748l-1.95 14.867h-33.569l.203-1.076zm39.286 0l2.422-.269c1.076-.135 1.85-.303 2.32-.505.471-.202.707-.437.707-.706V36.225a.557.557 0 0 0-.1-.337c-.068-.089-.226-.178-.472-.269-.248-.089-.606-.168-1.076-.235a23.957 23.957 0 0 0-1.85-.169l-1.885-.269-.2-1.076h34.98l.47 13.791h-1.748l-.605-2.22c-.539-1.928-1.168-3.542-1.885-4.844-.717-1.3-1.625-2.354-2.724-3.161-1.1-.808-2.434-1.368-4.002-1.682-1.57-.313-3.477-.471-5.719-.471l-4.506.067v18.432l2.488-.067c2.647-.089 4.631-.493 5.953-1.211 1.323-.717 2.276-1.995 2.86-3.834l.74-2.153h1.412l-1.682 16.145-1.345-.067-.268-2.086c-.092-.986-.269-1.804-.539-2.455a3.463 3.463 0 0 0-1.312-1.581c-.606-.404-1.413-.706-2.422-.908-1.008-.202-2.299-.325-3.867-.37l-2.018-.067V74.3l5.582.202c2.332 0 4.328-.236 5.988-.707 1.658-.471 3.082-1.154 4.272-2.052a12.274 12.274 0 0 0 2.994-3.262c.807-1.278 1.502-2.725 2.084-4.339l.674-2.018h1.748l-1.748 13.79H292.76l.203-1.076zm59.821-20.719c3.02-.09 5.386-.92 7.1-2.49 1.712-1.57 2.568-3.878 2.568-6.928 0-3.004-.913-5.36-2.738-7.063-1.825-1.705-4.428-2.512-7.81-2.422h-1.42c-.404 0-.833.023-1.284.067V53.58c.406.09 1.004.203 1.791.337.788.135 1.387.202 1.793.202zm-18.046 20.719l2.825-.27c.897-.088 1.615-.245 2.153-.47.537-.224.806-.471.806-.74V36.225a.545.545 0 0 0-.1-.336c-.068-.09-.226-.18-.472-.27-.246-.09-.604-.168-1.075-.235a23.538 23.538 0 0 0-1.85-.168l-2.22-.27-.202-1.076 20.046-.067c5.74 0 10.024.898 12.85 2.69 2.825 1.795 4.236 4.44 4.236 7.939 0 2.6-.908 4.843-2.723 6.727-1.817 1.883-4.295 3.207-7.433 3.969l8.745 13.79a41.816 41.816 0 0 0 1.781 2.658c.517.695 1.02 1.255 1.514 1.68a5.1 5.1 0 0 0 1.548.943 8.262 8.262 0 0 0 1.884.437l1.077.202.268 1.076h-14.127l-1.212-2.354-10.069-17.827a61.271 61.271 0 0 0-1.928-.336c-.836-.134-1.454-.291-1.86-.471V73.56c0 .494 1.12.83 3.363 1.009l2.423.269.202 1.076h-20.652l.202-1.076zm45.272 0l1.951-.202c.897-.09 1.625-.235 2.186-.437a2.839 2.839 0 0 0 1.345-.976c.336-.448.573-1.042.706-1.782.135-.74.225-1.692.27-2.859l.874-30.608c-.807-1.525-2.176-2.422-4.103-2.691l-2.421-.269-.203-1.144h16.145l10.764 30.272h.202l10.965-30.272h16.212l-.203 1.144-3.631.269c-.943.09-1.626.269-2.052.538-.427.269-.64.561-.64.874l.74 33.367c0 .897.044 1.626.135 2.186.089.561.257.999.504 1.312.246.314.583.528 1.01.639.426.112.974.213 1.647.303l2.422.336.202 1.076h-20.652l.202-1.076 3.296-.336c.942-.09 1.581-.448 1.917-1.077.337-.628.481-1.793.438-3.498l-.807-32.626h-.27L405.034 75.51h-2.219l-13.32-36.662a1.539 1.539 0 0 0-.37-.471c-.158-.134-.259-.246-.302-.336l-.741 30.944c-.045 1.077-.011 1.963.101 2.658.112.695.337 1.256.673 1.681.337.427.83.73 1.48.909.65.179 1.49.313 2.523.403l1.951.202.201 1.076h-15.203l.202-1.076zm75.208-33.03h-.27l-5.515 15.875h10.897l-5.112-15.875zm-8.207 22.78a138.984 138.984 0 0 0-1.548 4.856c-.359 1.228-.471 2.2-.336 2.914.135.715.527 1.217 1.177 1.507.65.291 1.648.503 2.994.636l1.547.213.202 1.2h-15.002l.202-1.21 1.279-.203c.986-.133 1.804-.345 2.455-.637.649-.29 1.278-.885 1.883-1.78.606-.896 1.255-2.194 1.952-3.896.694-1.7 1.581-4.028 2.657-6.984l7.669-21.292-.539-2.282c.539-.135 1.11-.369 1.716-.706a14.406 14.406 0 0 0 1.782-1.176c.583-.447 1.11-.928 1.581-1.443.471-.515.818-1.04 1.043-1.579h1.211l11.973 34.924c.494 1.388.931 2.508 1.313 3.36.38.85.784 1.522 1.211 2.013.426.493.874.84 1.345 1.042.471.202 1.043.325 1.715.37l2.018.268.202 1.211H459.86l.201-1.21 1.951-.203c.808-.088 1.423-.245 1.85-.468.425-.224.695-.58.807-1.073.112-.49.09-1.127-.067-1.908-.157-.782-.438-1.753-.841-2.914l-2.96-9.04h-11.906l-1.884 5.49zm43.523-23.722h-.202l.067 27.917c0 1.122.079 2.03.236 2.725.156.695.425 1.255.808 1.681.38.427.897.74 1.547.942.649.202 1.445.348 2.388.438l2.018.27.202 1.075h-15.204l.202-1.076 1.883-.269c1.615-.135 2.726-.617 3.33-1.447.606-.829.91-2.388.91-4.675l.202-28.456a12.064 12.064 0 0 0-2.457-3.027 6.773 6.773 0 0 0-3.397-1.614l-1.413-.404-.202-1.076h15.002l23.41 29.397h.202l-.067-22.199c0-1.12-.079-2.04-.236-2.758-.158-.717-.427-1.289-.807-1.716-.382-.425-.887-.74-1.514-.94-.629-.204-1.434-.349-2.422-.439l-1.95-.269-.202-1.076h15.136l-.202 1.076-1.884.27c-1.57.134-2.668.616-3.296 1.445-.628.831-.94 2.412-.94 4.743l-.203 34.914h-2.355l-28.59-35.452zm48.166 0h-.202l.067 27.917c0 1.122.078 2.03.236 2.725.156.695.425 1.255.808 1.681.38.427.896.74 1.546.942.65.202 1.447.348 2.39.438l2.017.27.202 1.075H530.56l.202-1.076 1.882-.269c1.615-.135 2.726-.617 3.33-1.447.606-.829.91-2.388.91-4.675l.202-28.456a12.064 12.064 0 0 0-2.457-3.027 6.773 6.773 0 0 0-3.396-1.614l-1.413-.404-.202-1.076h15.001l23.41 29.397h.202l-.067-22.199c0-1.12-.078-2.04-.236-2.758-.158-.717-.426-1.289-.807-1.716-.381-.425-.886-.74-1.513-.94-.63-.204-1.436-.349-2.423-.439l-1.95-.269-.202-1.076h15.136l-.202 1.076-1.883.27c-1.572.134-2.67.616-3.297 1.445-.629.831-.942 2.412-.942 4.743l-.202 34.914h-2.354L538.7 40.866zm-356.825 66.865c-1.363 0-2.618-.215-3.766-.643-1.148-.43-2.137-1.036-2.968-1.82a8.324 8.324 0 0 1-1.946-2.814c-.466-1.092-.7-2.31-.7-3.654 0-1.362.234-2.618.7-3.766a8.768 8.768 0 0 1 1.96-2.969 8.974 8.974 0 0 1 2.996-1.945c1.157-.468 2.436-.7 3.836-.7.952 0 1.797.102 2.534.306a11.77 11.77 0 0 1 1.974.728l1.512-.588.28 5.013h-.392l-1.624-3.864c-.374-.26-.93-.513-1.666-.755-.737-.243-1.63-.365-2.674-.365-1.14 0-2.175.215-3.108.642a6.912 6.912 0 0 0-2.394 1.8c-.663.772-1.172 1.684-1.526 2.736-.355 1.052-.532 2.21-.532 3.475 0 1.284.177 2.46.532 3.53.354 1.07.859 1.986 1.512 2.75a6.883 6.883 0 0 0 2.366 1.785c.924.428 1.965.642 3.122.642.728 0 1.368-.07 1.918-.21a5.482 5.482 0 0 0 1.498-.615c.448-.27.849-.594 1.204-.967.354-.372.69-.792 1.008-1.26l.812-1.931h.42l-.952 4.34-.952.028c-.56.26-1.297.508-2.212.742-.915.233-1.84.35-2.772.35m21.784-.504c1.044 0 2.002-.195 2.87-.586a6.11 6.11 0 0 0 2.226-1.703c.615-.744 1.096-1.642 1.441-2.693.346-1.051.518-2.228.518-3.531 0-1.34-.185-2.55-.56-3.628-.373-1.08-.881-2.005-1.525-2.776a6.747 6.747 0 0 0-2.268-1.787 6.387 6.387 0 0 0-2.814-.628c-1.028 0-1.975.2-2.843.6a6.32 6.32 0 0 0-2.24 1.73c-.625.754-1.11 1.66-1.456 2.722-.346 1.06-.518 2.26-.518 3.6 0 1.32.183 2.516.546 3.586.364 1.07.869 1.982 1.512 2.736a6.697 6.697 0 0 0 2.282 1.744 6.61 6.61 0 0 0 2.828.614m-.055.476c-1.288 0-2.484-.22-3.585-.658a8.471 8.471 0 0 1-2.856-1.848c-.803-.793-1.433-1.75-1.89-2.87-.457-1.12-.685-2.352-.685-3.696 0-1.251.242-2.431.728-3.542a9.695 9.695 0 0 1 1.96-2.926 9.473 9.473 0 0 1 2.856-2.002 8.121 8.121 0 0 1 3.416-.742c1.287 0 2.483.224 3.584.672a8.708 8.708 0 0 1 2.87 1.876c.811.802 1.446 1.769 1.904 2.898.458 1.13.685 2.376.685 3.738a8.688 8.688 0 0 1-.727 3.514 9.35 9.35 0 0 1-1.96 2.898 9.496 9.496 0 0 1-2.856 1.96 8.331 8.331 0 0 1-3.445.728m14.365-.757l1.316-.084c.448-.037.798-.098 1.05-.182.252-.084.378-.228.378-.434l.504-15.484c-.131-.093-.327-.172-.588-.238a7.624 7.624 0 0 0-.812-.154l-1.372-.14-.084-.392h4.788l5.824 14.84h.056l5.936-14.84h4.536l-.056.392-1.708.084c-.336.038-.556.094-.658.168-.103.075-.164.15-.182.224l.336 15.82c0 .094.065.168.196.224.13.056.448.103.952.14l1.232.056.084.392h-6.748l.084-.392 1.652-.084c.336-.018.56-.065.672-.14.112-.074.168-.158.168-.252l-.364-15.456h-.084l-6.552 16.156h-.336l-6.076-15.54a1.229 1.229 0 0 0-.21-.336 1.162 1.162 0 0 1-.182-.252l-.42 15.232c0 .355.634.551 1.904.588l1.064.084.084.392h-6.468l.084-.392zm26.739 0l1.316-.084c.448-.037.798-.098 1.05-.182.252-.084.378-.228.378-.434l.504-15.484c-.13-.093-.327-.172-.588-.238a7.624 7.624 0 0 0-.812-.154l-1.372-.14-.084-.392h4.788l5.824 14.84h.056l5.936-14.84h4.536l-.056.392-1.708.084c-.336.038-.556.094-.658.168-.103.075-.164.15-.182.224l.336 15.82c0 .094.065.168.196.224.13.056.448.103.952.14l1.232.056.084.392h-6.748l.084-.392 1.652-.084c.336-.018.56-.065.672-.14.112-.074.168-.158.168-.252l-.364-15.456h-.084l-6.552 16.156h-.336l-6.076-15.54a1.229 1.229 0 0 0-.21-.336 1.162 1.162 0 0 1-.182-.252l-.42 15.232c0 .355.634.551 1.904.588l1.064.084.084.392h-6.468l.084-.392zm27.048 0l1.456-.14c.355-.038.602-.08.742-.126s.21-.117.21-.21V90.623c0-.094-.06-.159-.182-.197-.122-.037-.443-.074-.966-.112l-1.232-.106-.084-.37h12.516l.448 4.536h-.336l-.308-1.204a6.806 6.806 0 0 0-.63-1.372 3.023 3.023 0 0 0-.868-.91c-.346-.233-.775-.4-1.288-.504-.514-.102-1.153-.154-1.918-.154h-3.444v7.672h2.8a13.71 13.71 0 0 0 1.372-.098c.336-.046.597-.126.784-.238.186-.112.326-.27.42-.476a6.03 6.03 0 0 0 .28-.784l.28-.812.308.028-.532 5.348-.308-.028-.056-.756a4.589 4.589 0 0 0-.112-.882.812.812 0 0 0-.336-.49c-.168-.112-.43-.186-.784-.224-.355-.037-.84-.065-1.456-.084l-2.66-.028v8.428l3.472.084c.99 0 1.797-.079 2.422-.238.625-.158 1.134-.378 1.526-.658.392-.28.71-.616.952-1.008s.457-.83.644-1.316l.336-1.176.42.028-1.064 4.816H271.67l.084-.392zm26.684-8.4c1.194-.074 2.165-.478 2.912-1.209.746-.733 1.12-1.739 1.12-3.018 0-1.279-.444-2.28-1.33-3.004-.887-.723-2.198-1.057-3.934-1l-1.68.055v7.76c.168.055.373.105.616.152.242.046.504.093.784.14a9.333 9.333 0 0 0 1.512.124zm-7.225 8.4l1.624-.14c.206-.018.42-.055.645-.112.224-.056.336-.13.336-.223V90.678c0-.092-.061-.158-.182-.195-.122-.037-.453-.074-.994-.112l-1.4-.112-.084-.42h6.86c2.053 0 3.61.387 4.676 1.161 1.064.774 1.596 1.814 1.596 3.12 0 .596-.112 1.151-.336 1.663-.224.513-.537.97-.938 1.371a5.964 5.964 0 0 1-1.414 1.035 8.132 8.132 0 0 1-1.765.685l4.285 6.587c.205.3.378.538.518.715.14.178.284.318.434.421.149.103.303.173.462.21.158.038.35.056.574.056l.784.084.11.392h-3.694l-.476-.84-4.676-7.476c-.15 0-.346-.01-.588-.03a18.438 18.438 0 0 1-1.47-.178 2.794 2.794 0 0 1-.574-.149v7.86c0 .094.135.16.406.197.27.037.527.075.77.112l1.4.112.084.392h-7.057l.084-.392zm29.317.784c-1.362 0-2.617-.215-3.766-.643-1.148-.43-2.137-1.036-2.968-1.82a8.313 8.313 0 0 1-1.947-2.814c-.465-1.092-.698-2.31-.698-3.654 0-1.362.233-2.618.698-3.766a8.768 8.768 0 0 1 1.96-2.969 8.984 8.984 0 0 1 2.996-1.945c1.159-.468 2.438-.7 3.837-.7.952 0 1.796.102 2.534.306a11.87 11.87 0 0 1 1.975.728l1.512-.588.28 5.013h-.392l-1.625-3.864c-.373-.26-.928-.513-1.666-.755-.738-.243-1.628-.365-2.673-.365-1.14 0-2.175.215-3.11.642a6.909 6.909 0 0 0-2.392 1.8c-.663.772-1.172 1.684-1.527 2.736-.354 1.052-.531 2.21-.531 3.475 0 1.284.177 2.46.53 3.53.356 1.07.86 1.986 1.513 2.75a6.87 6.87 0 0 0 2.365 1.785c.925.428 1.966.642 3.123.642.728 0 1.368-.07 1.918-.21a5.47 5.47 0 0 0 1.498-.615c.449-.27.85-.594 1.204-.967a9.83 9.83 0 0 0 1.007-1.26l.813-1.931h.42l-.952 4.34-.952.028c-.56.26-1.298.508-2.213.742a11.17 11.17 0 0 1-2.77.35m12.851-.785l1.512-.14c.373-.037.63-.079.77-.126.14-.046.21-.116.21-.21v-15.82c0-.093-.06-.158-.182-.196-.122-.037-.453-.074-.995-.112l-1.287-.112-.084-.392h6.831l-.084.392-1.51.14c-.374.038-.63.08-.77.126-.14.047-.21.117-.21.21v15.82c0 .094.064.16.195.196.13.037.458.075.98.112l1.288.112.084.392h-6.832l.084-.392zm22.078-8.6a56.228 56.228 0 0 0-.435-1.278c-.168-.478-.337-.96-.504-1.448-.392-1.16-.85-2.473-1.372-3.934h-.056l-2.8 7.896h5.572c-.149-.449-.285-.86-.406-1.236zm-7.015 6.388a10.41 10.41 0 0 0-.35 1.064c-.066.262-.066.467 0 .616.065.15.21.252.434.308.224.056.55.103.98.14l1.036.084.084.392h-5.74l.084-.392.868-.084c.317-.037.574-.098.77-.182.196-.084.378-.242.546-.476.168-.233.345-.574.531-1.022.187-.448.43-1.064.73-1.848l4.367-12.124-.196-.7c.186-.074.41-.2.672-.378.261-.177.438-.359.532-.546h.252l5.6 15.848c.112.28.206.51.28.686.074.178.163.318.266.42a.889.889 0 0 0 .378.224c.15.047.345.08.588.098l1.148.084.084.392h-6.58l.084-.392 1.26-.056c.298-.018.565-.079.798-.182.234-.102.303-.284.21-.546l-2.1-6.104h-5.936l-1.68 4.676zm18.732 2.212l1.372-.14c.355-.037.603-.079.742-.126.14-.046.21-.116.21-.21v-15.82c0-.093-.06-.158-.181-.196-.122-.037-.445-.074-.967-.112l-1.148-.112-.084-.392h7.056l-.084.392-1.904.14c-.373.038-.63.09-.77.154-.139.066-.21.136-.21.21v16.072l2.8.056c.989 0 1.792-.074 2.408-.224.616-.149 1.12-.364 1.512-.644.393-.28.705-.616.938-1.008.234-.392.453-.83.659-1.316l.363-1.4h.42l-1.092 5.068h-12.124l.084-.392zm33.6-.056c.112-.018.215-.028.309-.028h.112c.746-.056 1.386-.206 1.918-.449a3.803 3.803 0 0 0 1.302-.94c.336-.385.583-.82.742-1.307a4.977 4.977 0 0 0 .237-1.546c0-.673-.131-1.287-.391-1.839a4.089 4.089 0 0 0-1.107-1.419c-.476-.393-1.05-.697-1.722-.912a7.19 7.19 0 0 0-2.212-.324h-.433c-.196 0-.402.005-.616.014l-.603.028a8.13 8.13 0 0 1-.391.014v8.343l2.408.421.447-.056zm-.924-9.24c1.53-.037 2.693-.415 3.487-1.134.792-.718 1.19-1.582 1.19-2.59 0-2.408-1.55-3.612-4.65-3.612h-1.958v7.364l1.93-.028zm-5.964 9.324l1.344-.14c.374-.037.63-.079.77-.126s.21-.117.21-.21V90.652c0-.094-.06-.164-.181-.21-.122-.048-.453-.09-.994-.128l-1.12-.112-.084-.364h6.58c1.978 0 3.467.344 4.466 1.033.998.688 1.498 1.59 1.498 2.706 0 .484-.084.95-.252 1.396-.168.445-.44.855-.813 1.227-.373.372-.858.693-1.456.962-.598.27-1.334.47-2.212.6v.096c1.866.132 3.263.623 4.187 1.473.924.851 1.385 1.893 1.385 3.127 0 1.534-.592 2.73-1.778 3.59-1.185.86-2.851 1.29-4.998 1.29h-6.636l.084-.364zm26.291-8.428c1.195-.074 2.166-.478 2.913-1.209.746-.733 1.12-1.739 1.12-3.018 0-1.279-.444-2.28-1.33-3.004-.887-.723-2.198-1.057-3.934-1l-1.68.055v7.76c.168.055.373.105.616.152.242.046.504.093.784.14a9.333 9.333 0 0 0 1.512.124zm-7.224 8.4l1.624-.14c.206-.018.42-.055.645-.112.224-.056.336-.13.336-.223V90.678c0-.092-.061-.158-.182-.195-.122-.037-.453-.074-.994-.112l-1.4-.112-.084-.42h6.86c2.053 0 3.61.387 4.676 1.161 1.064.774 1.596 1.814 1.596 3.12 0 .596-.112 1.151-.336 1.663-.224.513-.537.97-.938 1.371a5.964 5.964 0 0 1-1.414 1.035 8.132 8.132 0 0 1-1.765.685l4.285 6.587c.205.3.378.538.518.715.14.178.284.318.434.421.149.103.303.173.462.21.158.038.35.056.574.056l.784.084.11.392h-3.694l-.476-.84-4.676-7.476c-.15 0-.346-.01-.588-.03a18.438 18.438 0 0 1-1.47-.178 2.794 2.794 0 0 1-.574-.149v7.86c0 .094.135.16.406.197.27.037.527.075.77.112l1.4.112.084.392h-7.057l.084-.392zm29.008.281c1.046 0 2.002-.195 2.87-.586a6.122 6.122 0 0 0 2.227-1.703c.615-.744 1.095-1.642 1.441-2.693.346-1.051.52-2.228.52-3.531 0-1.34-.189-2.55-.562-3.628-.373-1.08-.882-2.005-1.525-2.776a6.76 6.76 0 0 0-2.269-1.787 6.386 6.386 0 0 0-2.813-.628c-1.028 0-1.975.2-2.843.6-.867.4-1.614.977-2.239 1.73-.626.754-1.112 1.66-1.456 2.722-.346 1.06-.519 2.26-.519 3.6 0 1.32.183 2.516.546 3.586.364 1.07.868 1.982 1.513 2.736a6.613 6.613 0 0 0 5.109 2.358m-.056.476c-1.288 0-2.483-.22-3.584-.658a8.471 8.471 0 0 1-2.856-1.848c-.803-.793-1.433-1.75-1.89-2.87-.458-1.12-.685-2.352-.685-3.696 0-1.251.242-2.431.727-3.542a9.714 9.714 0 0 1 1.96-2.926 9.465 9.465 0 0 1 2.857-2.002 8.115 8.115 0 0 1 3.416-.742c1.287 0 2.481.224 3.584.672a8.714 8.714 0 0 1 2.87 1.876c.811.802 1.446 1.769 1.903 2.898.457 1.13.687 2.376.687 3.738a8.69 8.69 0 0 1-.729 3.514 9.35 9.35 0 0 1-1.96 2.898 9.491 9.491 0 0 1-2.855 1.96 8.336 8.336 0 0 1-3.445.728m14.755-.757l1.344-.14c.374-.038.631-.08.77-.126.14-.046.21-.117.21-.21V90.623c0-.094-.06-.159-.18-.197-.123-.037-.455-.074-.996-.112l-1.12-.106-.084-.37h6.58l-.084.364-1.428.14c-.373.038-.63.08-.77.126-.139.047-.21.117-.21.211v9.155l5.824-6.038a49.966 49.966 0 0 0 1.778-1.853c.401-.45.64-.786.715-1.01.074-.226.008-.375-.197-.45-.206-.075-.532-.13-.98-.169l-1.344-.112-.084-.364h6.357l-.084.364-.729.056c-.243.02-.448.033-.616.042-.168.01-.326.047-.476.112a2.366 2.366 0 0 0-.49.31 9.606 9.606 0 0 0-.685.616c-.28.272-.626.622-1.037 1.052-.41.43-.933.972-1.568 1.626l-2.324 2.385 5.908 9.03c.205.337.373.6.504.786.131.187.252.323.364.407.112.084.238.14.378.168.14.028.322.052.546.07l.896.084.084.392h-6.244l.113-.392.98-.084c.484-.037.75-.177.797-.42a.892.892 0 0 0-.126-.672l-5.292-8.26-2.968 2.996v6.02c0 .094.066.16.197.196.13.037.457.075.98.112l1.203.112.084.392h-6.58l.084-.392zm21.672 0l1.456-.14c.355-.038.603-.08.742-.126.14-.046.21-.117.21-.21V90.623c0-.094-.06-.159-.18-.197-.124-.037-.446-.074-.968-.112l-1.232-.106-.084-.37h12.516l.448 4.536h-.336l-.308-1.204a6.806 6.806 0 0 0-.63-1.372 3.032 3.032 0 0 0-.867-.91c-.346-.233-.776-.4-1.288-.504-.514-.102-1.154-.154-1.918-.154h-3.445v7.672h2.8a13.733 13.733 0 0 0 1.372-.098c.336-.046.598-.126.784-.238.187-.112.326-.27.42-.476a6.03 6.03 0 0 0 .28-.784l.28-.812.308.028-.532 5.348-.307-.028-.057-.756a4.683 4.683 0 0 0-.11-.882.816.816 0 0 0-.337-.49c-.168-.112-.43-.186-.785-.224a21.067 21.067 0 0 0-1.456-.084l-2.66-.028v8.428l3.472.084c.99 0 1.797-.079 2.422-.238.626-.158 1.135-.378 1.526-.658.392-.28.71-.616.952-1.008s.457-.83.644-1.316l.336-1.176.42.028-1.064 4.816h-12.908l.084-.392zm26.684-8.4c1.194-.074 2.165-.478 2.912-1.209.746-.733 1.12-1.739 1.12-3.018 0-1.279-.444-2.28-1.33-3.004-.887-.723-2.198-1.057-3.934-1l-1.68.055v7.76c.168.055.373.105.616.152.242.046.504.093.784.14a9.333 9.333 0 0 0 1.512.124zm-7.225 8.4l1.624-.14c.206-.018.42-.055.645-.112.224-.056.336-.13.336-.223V90.678c0-.092-.061-.158-.182-.195-.122-.037-.453-.074-.994-.112l-1.4-.112-.084-.42h6.86c2.053 0 3.61.387 4.676 1.161 1.064.774 1.596 1.814 1.596 3.12 0 .596-.112 1.151-.336 1.663-.224.513-.537.97-.938 1.371a5.964 5.964 0 0 1-1.414 1.035 8.132 8.132 0 0 1-1.765.685l4.285 6.587c.205.3.378.538.518.715.14.178.284.318.434.421.149.103.303.173.462.21.158.038.35.056.574.056l.784.084.11.392h-3.694l-.476-.84-4.676-7.476c-.15 0-.346-.01-.588-.03a18.438 18.438 0 0 1-1.47-.178 2.794 2.794 0 0 1-.574-.149v7.86c0 .094.135.16.406.197.27.037.527.075.77.112l1.4.112.084.392h-7.057l.084-.392zm29.612-8.6a56.228 56.228 0 0 0-.434-1.278c-.168-.478-.337-.96-.504-1.448-.392-1.16-.85-2.473-1.372-3.934h-.056l-2.8 7.896h5.572c-.15-.449-.285-.86-.406-1.236zm-7.014 6.388a10.41 10.41 0 0 0-.35 1.064c-.066.262-.066.467 0 .616.065.15.21.252.434.308.224.056.55.103.98.14l1.036.084.084.392h-5.74l.084-.392.868-.084c.317-.037.574-.098.77-.182.196-.084.378-.242.546-.476.168-.233.345-.574.53-1.022.188-.448.43-1.064.73-1.848l4.368-12.124-.196-.7c.186-.074.41-.2.672-.378.26-.177.438-.359.532-.546h.252l5.6 15.848c.112.28.206.51.28.686.074.178.163.318.266.42a.889.889 0 0 0 .378.224c.149.047.345.08.588.098l1.148.084.084.392h-6.58l.084-.392 1.26-.056c.298-.018.565-.079.798-.182.234-.102.303-.284.21-.546l-2.1-6.104h-5.936l-1.68 4.676zm26.878 3.025c-1.362 0-2.622-.216-3.78-.645-1.156-.429-2.155-1.026-2.995-1.792a7.92 7.92 0 0 1-1.96-2.786c-.467-1.092-.7-2.29-.7-3.598 0-1.362.233-2.627.7-3.794a9.002 9.002 0 0 1 1.96-3.024 9.101 9.101 0 0 1 3.01-2.002c1.166-.485 2.45-.728 3.85-.728.934 0 1.764.103 2.492.308a12.02 12.02 0 0 1 1.96.728l1.54-.588.056 4.928h-.392l-1.428-3.78c-.374-.26-.92-.513-1.638-.756-.72-.243-1.63-.364-2.73-.364-1.12 0-2.142.22-3.066.66a6.885 6.885 0 0 0-2.366 1.836c-.654.786-1.162 1.716-1.526 2.791-.364 1.075-.546 2.248-.546 3.52 0 1.29.186 2.462.56 3.52.373 1.055.896 1.962 1.568 2.72a6.827 6.827 0 0 0 2.436 1.752c.952.411 2.007.617 3.164.617.354 0 .724-.023 1.106-.07a12.69 12.69 0 0 0 1.106-.183 9.06 9.06 0 0 0 .994-.267 3.47 3.47 0 0 0 .77-.352v-5.875c0-.093-.075-.158-.224-.196-.15-.038-.485-.075-1.008-.113l-1.54-.106-.084-.37h6.888l-.084.364-1.316.14c-.374.038-.63.08-.77.126-.14.047-.21.117-.21.21v5.404l1.736-.168.028.308a27.603 27.603 0 0 1-3.752 1.12c-.672.15-1.334.271-1.988.364-.654.093-1.26.14-1.82.14m13.411-.812l1.456-.14c.355-.038.603-.08.742-.126.14-.046.21-.117.21-.21V90.623c0-.094-.06-.159-.181-.197-.123-.037-.445-.074-.967-.112l-1.232-.106-.084-.37h12.516l.448 4.536h-.336l-.308-1.204a6.806 6.806 0 0 0-.63-1.372 3.032 3.032 0 0 0-.867-.91c-.346-.233-.776-.4-1.288-.504-.514-.102-1.154-.154-1.918-.154h-3.445v7.672h2.8a13.733 13.733 0 0 0 1.372-.098c.336-.046.598-.126.784-.238.187-.112.326-.27.42-.476a6.03 6.03 0 0 0 .28-.784l.28-.812.308.028-.532 5.348-.307-.028-.057-.756a4.683 4.683 0 0 0-.111-.882.816.816 0 0 0-.336-.49c-.168-.112-.43-.186-.785-.224a21.067 21.067 0 0 0-1.456-.084l-2.66-.028v8.428l3.472.084c.989 0 1.797-.079 2.422-.238.626-.158 1.135-.378 1.526-.658.392-.28.709-.616.952-1.008.242-.392.457-.83.644-1.316l.336-1.176.42.028-1.064 4.816h-12.908l.084-.392z" fill="#003E73"/><rect fill="url(#a)" width="148" height="148" rx="5"/><path d="M38.657 87.143c1.733 0 3.716-1.383 5.95-4.15 2.233-2.766 4.883-7.05 7.95-12.85.2-.466.466-1.1.8-1.9.333-.8.65-1.616.95-2.45.3-.833.55-1.616.75-2.35.2-.733.3-1.233.3-1.5a11.49 11.49 0 0 0-1.1-3.15 11.035 11.035 0 0 0-2-2.75c-.8-.8-1.667-1.45-2.6-1.95-.935-.5-1.867-.75-2.8-.75-.734 0-1.35.167-1.85.5-.5.334-1.05.767-1.65 1.3-1.067 1.067-2.117 2.6-3.15 4.6a58.22 58.22 0 0 0-2.85 6.5 52.54 52.54 0 0 0-2.1 7.2c-.535 2.467-.8 4.7-.8 6.7 0 2.267.366 4 1.1 5.2.733 1.2 1.766 1.8 3.1 1.8m18.1 7.4c-.6 0-1.384-.217-2.35-.65a18.756 18.756 0 0 1-2.85-1.6c-.934-.633-1.734-1.283-2.4-1.95-.667-.666-1-1.233-1-1.7 0-1 .416-2.815 1.25-5.45.833-2.633 1.983-5.95 3.45-9.95h-.4c-1.934 3.335-3.7 6.3-5.3 8.9-1.6 2.6-3.117 4.8-4.55 6.6-1.434 1.8-2.867 3.184-4.3 4.15-1.434.966-2.984 1.45-4.65 1.45-2.867 0-5.3-1-7.3-3s-3-4.733-3-8.2c0-2.4.365-4.833 1.1-7.3a40.822 40.822 0 0 1 2.95-7.25 48.282 48.282 0 0 1 4.35-6.85 67.39 67.39 0 0 1 5.2-6.1c2.466-2.466 4.866-4.35 7.2-5.65 2.333-1.3 4.565-1.95 6.7-1.95 1.133 0 2.066.3 2.8.9.733.6 1.315 1.4 1.75 2.4.433 1 .716 2.15.85 3.45.133 1.3.2 2.617.2 3.95h.5l7.5-25.3c.133-.666.15-1.25.05-1.75-.1-.5-.35-.783-.75-.85l-8-1 .3-1.3 21.5-2.8-13.2 42.3-5.9 19.2 4.5.7 6.8-8.8.9.8c-1.067 2.2-2.217 4.184-3.45 5.95-1.235 1.767-2.467 3.3-3.7 4.6-1.234 1.3-2.434 2.3-3.6 3-1.167.7-2.217 1.05-3.15 1.05m42.499-2.1c.866 0 1.716-.232 2.55-.701a10.742 10.742 0 0 0 2.35-1.805c1.266-1.27 2.5-3.008 3.7-5.214a50.462 50.462 0 0 0 3.15-7.07 56.476 56.476 0 0 0 2.15-7.62c.533-2.572.8-4.861.8-6.868 0-2.806-.467-4.878-1.4-6.216-.934-1.337-2.134-2.006-3.6-2.006-1.134 0-2.3.569-3.5 1.705-1.2 1.137-2.434 2.708-3.7 4.712-1.267 2.007-2.55 4.413-3.85 7.219a167.298 167.298 0 0 0-3.95 9.325c-.134.334-.317.853-.55 1.555-.234.703-.45 1.455-.65 2.256-.2.803-.384 1.572-.55 2.306-.167.736-.25 1.27-.25 1.604.2.802.55 1.604 1.05 2.407.5.804 1.083 1.538 1.75 2.206a8.708 8.708 0 0 0 2.15 1.603c.766.402 1.55.602 2.35.602zm-32.4 24.1l2.7-.4c1.334-.133 2.267-.315 2.8-.548.534-.235.867-.617 1-1.15l16.5-59.202-4.3-.4-6.5 9.4-1-.9c1-2.2 2.1-4.233 3.3-6.1 1.2-1.865 2.416-3.483 3.65-4.85 1.233-1.366 2.45-2.432 3.65-3.2 1.2-.766 2.333-1.15 3.4-1.15.533 0 1.266.217 2.2.65.933.435 1.85.967 2.75 1.6.9.634 1.683 1.317 2.35 2.05.666.735 1 1.434 1 2.1 0 1.2-.3 2.75-.9 4.65-.6 1.9-1.2 3.717-1.8 5.45h.6c2.666-5.665 5.266-9.815 7.8-12.45 2.533-2.632 5.4-3.95 8.6-3.95 3 0 5.416 1.35 7.25 4.05 1.833 2.7 2.75 6.185 2.75 10.45 0 3.8-.734 7.6-2.2 11.4-1.467 3.8-3.4 7.217-5.8 10.25-2.4 3.035-5.15 5.5-8.25 7.4-3.1 1.9-6.317 2.85-9.65 2.85-1.6 0-3.084-.45-4.45-1.35-1.367-.9-2.417-2.05-3.15-3.45h-.4l-6.8 24.806c-.134.464.116.813.75 1.046.633.23 1.883.414 3.75.548l4.2.42.1 1.68h-26.2l.3-1.7z" fill="#FEFEFE"/></g></svg>