<?xml version="1.0" encoding="UTF-8" standalone="no"?>
<svg width="577px" height="148px" viewBox="0 0 577 148" version="1.1" xmlns="http://www.w3.org/2000/svg" xmlns:xlink="http://www.w3.org/1999/xlink">
    <!-- Generator: Sketch 40.3 (33839) - http://www.bohemiancoding.com/sketch -->
    <title>logo</title>
    <desc>Created with Sketch.</desc>
    <defs>
        <linearGradient x1="0%" y1="0%" x2="100%" y2="100%" id="linearGradient-1">
            <stop stop-color="#003E73" offset="0%"></stop>
            <stop stop-color="#002C51" offset="100%"></stop>
        </linearGradient>
    </defs>
    <g id="Home" stroke="none" stroke-width="1" fill="none" fill-rule="evenodd">
        <g id="logo" transform="translate(-3.000000, -69.000000)">
            <g transform="translate(3.000000, 69.000000)">
                <path d="M172.2805,74.838 L174.7025,74.569 C175.7785,74.434 176.5525,74.266 177.0235,74.064 C177.4935,73.862 177.7295,73.627 177.7295,73.358 L177.7295,36.225 C177.7295,36.09 177.6965,35.979 177.6285,35.888 C177.5615,35.799 177.4035,35.71 177.1575,35.619 C176.9105,35.53 176.5525,35.451 176.0815,35.384 C175.6105,35.317 174.9935,35.261 174.2315,35.215 L172.3475,34.946 L172.1465,33.87 L207.1265,33.87 L207.5975,47.661 L205.8485,47.661 L205.2435,45.441 C204.7045,43.513 204.0765,41.899 203.3595,40.597 C202.6415,39.297 201.7335,38.243 200.6345,37.436 C199.5355,36.628 198.2015,36.068 196.6325,35.754 C195.0625,35.441 193.1565,35.283 190.9145,35.283 L186.4075,35.35 L186.4075,53.782 L188.8965,53.715 C191.5425,53.626 193.5265,53.222 194.8495,52.504 C196.1725,51.787 197.1255,50.509 197.7085,48.67 L198.4485,46.517 L199.8615,46.517 L198.1795,62.662 L196.8345,62.595 L196.5655,60.509 C196.4745,59.523 196.2965,58.705 196.0275,58.054 C195.7585,57.404 195.3205,56.877 194.7155,56.473 C194.1105,56.069 193.3025,55.767 192.2935,55.565 C191.2845,55.363 189.9945,55.24 188.4255,55.195 L186.4075,55.128 L186.4075,74.3 L191.9905,74.502 C194.3225,74.502 196.3185,74.266 197.9775,73.795 C199.6365,73.324 201.0605,72.641 202.2495,71.743 C203.4375,70.847 204.4355,69.759 205.2435,68.481 C206.0505,67.203 206.7455,65.756 207.3285,64.142 L208.0015,62.124 L209.7505,62.124 L208.0015,75.914 L172.0785,75.914 L172.2805,74.838 Z" id="Fill-1" fill="#003E73"></path>
                <path d="M214.3909,74.838 L216.9479,74.502 C218.0679,74.412 218.8309,74.255 219.2349,74.03 C219.6379,73.807 219.8399,73.583 219.8399,73.358 L219.8399,36.292 C219.8399,36.157 219.8069,36.034 219.7389,35.922 C219.6719,35.811 219.5259,35.72 219.3019,35.653 C219.0769,35.586 218.7299,35.508 218.2589,35.417 C217.7879,35.328 217.1709,35.261 216.4089,35.215 L214.4579,34.946 L214.2569,33.87 L234.9759,33.87 L234.7739,34.946 L231.4779,35.283 C229.5039,35.417 228.5179,35.799 228.5179,36.426 L228.5179,74.3 L232.3519,74.569 C234.4599,74.569 236.2429,74.357 237.7009,73.93 C239.1569,73.504 240.4469,72.843 241.5679,71.945 C242.6889,71.048 243.6759,69.883 244.5279,68.447 C245.3799,67.012 246.2539,65.285 247.1519,63.267 L247.9589,61.047 L249.7079,61.047 L247.7569,75.914 L214.1889,75.914 L214.3909,74.838 Z" id="Fill-3" fill="#003E73"></path>
                <path d="M253.6765,74.838 L256.2335,74.502 C257.3535,74.412 258.1165,74.255 258.5205,74.03 C258.9235,73.807 259.1255,73.583 259.1255,73.358 L259.1255,36.292 C259.1255,36.157 259.0925,36.034 259.0245,35.922 C258.9575,35.811 258.8115,35.72 258.5875,35.653 C258.3625,35.586 258.0155,35.508 257.5445,35.417 C257.0735,35.328 256.4565,35.261 255.6945,35.215 L253.7435,34.946 L253.5425,33.87 L274.2615,33.87 L274.0595,34.946 L270.7635,35.283 C268.7895,35.417 267.8035,35.799 267.8035,36.426 L267.8035,74.3 L271.6375,74.569 C273.7455,74.569 275.5285,74.357 276.9865,73.93 C278.4425,73.504 279.7325,72.843 280.8535,71.945 C281.9745,71.048 282.9615,69.883 283.8135,68.447 C284.6655,67.012 285.5395,65.285 286.4375,63.267 L287.2445,61.047 L288.9935,61.047 L287.0425,75.914 L253.4745,75.914 L253.6765,74.838 Z" id="Fill-5" fill="#003E73"></path>
                <path d="M292.9632,74.838 L295.3852,74.569 C296.4612,74.434 297.2342,74.266 297.7052,74.064 C298.1762,73.862 298.4122,73.627 298.4122,73.358 L298.4122,36.225 C298.4122,36.09 298.3772,35.979 298.3112,35.888 C298.2442,35.799 298.0862,35.71 297.8402,35.619 C297.5922,35.53 297.2342,35.451 296.7642,35.384 C296.2932,35.317 295.6762,35.261 294.9142,35.215 L293.0292,34.946 L292.8282,33.87 L327.8092,33.87 L328.2792,47.661 L326.5312,47.661 L325.9262,45.441 C325.3872,43.513 324.7582,41.899 324.0412,40.597 C323.3242,39.297 322.4162,38.243 321.3172,37.436 C320.2172,36.628 318.8832,36.068 317.3152,35.754 C315.7442,35.441 313.8382,35.283 311.5962,35.283 L307.0902,35.35 L307.0902,53.782 L309.5782,53.715 C312.2252,53.626 314.2092,53.222 315.5312,52.504 C316.8542,51.787 317.8072,50.509 318.3912,48.67 L319.1312,46.517 L320.5432,46.517 L318.8612,62.662 L317.5162,62.595 L317.2482,60.509 C317.1562,59.523 316.9792,58.705 316.7092,58.054 C316.4402,57.404 316.0022,56.877 315.3972,56.473 C314.7912,56.069 313.9842,55.767 312.9752,55.565 C311.9672,55.363 310.6762,55.24 309.1082,55.195 L307.0902,55.128 L307.0902,74.3 L312.6722,74.502 C315.0042,74.502 317.0002,74.266 318.6602,73.795 C320.3182,73.324 321.7422,72.641 322.9322,71.743 C324.1192,70.847 325.1172,69.759 325.9262,68.481 C326.7332,67.203 327.4282,65.756 328.0102,64.142 L328.6842,62.124 L330.4322,62.124 L328.6842,75.914 L292.7602,75.914 L292.9632,74.838 Z" id="Fill-7" fill="#003E73"></path>
                <path d="M352.7835,54.1187 C355.8035,54.0297 358.1695,53.1997 359.8835,51.6297 C361.5965,50.0597 362.4525,47.7507 362.4525,44.7007 C362.4525,41.6967 361.5395,39.3417 359.7145,37.6377 C357.8885,35.9327 355.2855,35.1257 351.9045,35.2157 L350.4845,35.2157 C350.0795,35.2157 349.6505,35.2387 349.2005,35.2827 L349.2005,53.5797 C349.6055,53.6707 350.2035,53.7827 350.9915,53.9167 C351.7795,54.0517 352.3785,54.1187 352.7835,54.1187 L352.7835,54.1187 Z M334.7375,74.8377 L337.5625,74.5687 C338.4595,74.4797 339.1775,74.3227 339.7155,74.0977 C340.2535,73.8737 340.5225,73.6267 340.5225,73.3577 L340.5225,36.2247 C340.5225,36.0897 340.4885,35.9787 340.4215,35.8887 C340.3545,35.7987 340.1965,35.7097 339.9505,35.6187 C339.7035,35.5297 339.3455,35.4507 338.8745,35.3837 C338.4035,35.3167 337.7865,35.2607 337.0245,35.2157 L334.8045,34.9467 L334.6025,33.8697 L354.6495,33.8027 C360.3885,33.8027 364.6735,34.7007 367.4985,36.4937 C370.3235,38.2877 371.7355,40.9337 371.7355,44.4317 C371.7355,47.0327 370.8275,49.2747 369.0125,51.1587 C367.1955,53.0417 364.7175,54.3657 361.5785,55.1277 L370.3235,68.9177 C370.9965,69.9937 371.5905,70.8807 372.1055,71.5757 C372.6215,72.2707 373.1255,72.8307 373.6195,73.2567 C374.1125,73.6837 374.6285,73.9967 375.1675,74.1987 C375.7055,74.4007 376.3325,74.5467 377.0505,74.6357 L378.1275,74.8377 L378.3955,75.9137 L364.2685,75.9137 L363.0575,73.5597 L352.9885,55.7327 C352.5365,55.6437 351.8945,55.5317 351.0595,55.3967 C350.2245,55.2627 349.6055,55.1057 349.2005,54.9257 L349.2005,73.5597 C349.2005,74.0537 350.3205,74.3897 352.5635,74.5687 L354.9855,74.8377 L355.1875,75.9137 L334.5355,75.9137 L334.7375,74.8377 Z" id="Fill-9" fill="#003E73"></path>
                <path d="M380.01,74.838 L381.961,74.636 C382.858,74.546 383.586,74.401 384.147,74.199 C384.707,73.997 385.156,73.672 385.492,73.223 C385.828,72.775 386.065,72.181 386.198,71.441 C386.333,70.701 386.423,69.749 386.468,68.582 L387.342,37.974 C386.535,36.449 385.166,35.552 383.239,35.283 L380.818,35.014 L380.615,33.87 L396.76,33.87 L407.524,64.142 L407.726,64.142 L418.691,33.87 L434.903,33.87 L434.7,35.014 L431.069,35.283 C430.126,35.373 429.443,35.552 429.017,35.821 C428.59,36.09 428.377,36.382 428.377,36.695 L429.117,70.062 C429.117,70.959 429.161,71.688 429.252,72.248 C429.341,72.809 429.509,73.247 429.756,73.56 C430.002,73.874 430.339,74.088 430.766,74.199 C431.192,74.311 431.74,74.412 432.413,74.502 L434.835,74.838 L435.037,75.914 L414.385,75.914 L414.587,74.838 L417.883,74.502 C418.825,74.412 419.464,74.054 419.8,73.425 C420.137,72.797 420.281,71.632 420.238,69.927 L419.431,37.301 L419.161,37.301 L405.034,75.51 L402.815,75.51 L389.495,38.848 C389.405,38.67 389.281,38.512 389.125,38.377 C388.967,38.243 388.866,38.131 388.823,38.041 L388.082,68.985 C388.037,70.062 388.071,70.948 388.183,71.643 C388.295,72.338 388.52,72.899 388.856,73.324 C389.193,73.751 389.686,74.054 390.336,74.233 C390.986,74.412 391.826,74.546 392.859,74.636 L394.81,74.838 L395.011,75.914 L379.808,75.914 L380.01,74.838 Z" id="Fill-11" fill="#003E73"></path>
                <path d="M455.218,41.8082 L454.948,41.8082 L449.433,57.6832 L460.33,57.6832 L455.218,41.8082 Z M447.011,64.5882 C446.338,66.5982 445.822,68.2172 445.463,69.4442 C445.104,70.6722 444.992,71.6432 445.127,72.3582 C445.262,73.0732 445.654,73.5752 446.304,73.8652 C446.954,74.1562 447.952,74.3682 449.298,74.5012 L450.845,74.7142 L451.047,75.9142 L436.045,75.9142 L436.247,74.7032 L437.526,74.5012 C438.512,74.3682 439.33,74.1562 439.981,73.8642 C440.63,73.5732 441.259,72.9792 441.864,72.0842 C442.47,71.1882 443.119,69.8902 443.816,68.1882 C444.51,66.4882 445.397,64.1602 446.473,61.2042 L454.142,39.9122 L453.603,37.6302 C454.142,37.4952 454.713,37.2612 455.319,36.9242 C455.924,36.5882 456.518,36.1962 457.101,35.7482 C457.684,35.3012 458.211,34.8202 458.682,34.3052 C459.153,33.7902 459.5,33.2652 459.725,32.7262 L460.936,32.7262 L472.909,67.6502 C473.403,69.0382 473.84,70.1582 474.222,71.0092 C474.602,71.8602 475.006,72.5322 475.433,73.0232 C475.859,73.5162 476.307,73.8632 476.778,74.0652 C477.249,74.2672 477.821,74.3902 478.493,74.4342 L480.511,74.7032 L480.713,75.9142 L459.86,75.9142 L460.061,74.7032 L462.012,74.5012 C462.82,74.4132 463.435,74.2562 463.862,74.0332 C464.287,73.8092 464.557,73.4522 464.669,72.9602 C464.781,72.4702 464.759,71.8332 464.602,71.0522 C464.445,70.2702 464.164,69.2992 463.761,68.1382 L460.801,59.0972 L448.895,59.0972 L447.011,64.5882 Z" id="Fill-13" fill="#003E73"></path>
                <path d="M490.5345,40.8663 L490.3325,40.8663 L490.3995,68.7833 C490.3995,69.9053 490.4775,70.8133 490.6355,71.5083 C490.7915,72.2033 491.0605,72.7633 491.4425,73.1893 C491.8225,73.6163 492.3395,73.9293 492.9895,74.1313 C493.6385,74.3333 494.4355,74.4793 495.3785,74.5693 L497.3955,74.8383 L497.5975,75.9143 L482.3945,75.9143 L482.5965,74.8383 L484.4795,74.5693 C486.0945,74.4343 487.2045,73.9523 487.8095,73.1223 C488.4155,72.2933 488.7185,70.7343 488.7185,68.4473 L488.9205,39.9913 C488.2475,38.8263 487.4285,37.8173 486.4645,36.9643 C485.4995,36.1133 484.3675,35.5743 483.0675,35.3503 L481.6545,34.9463 L481.4525,33.8703 L496.4545,33.8703 L519.8645,63.2673 L520.0655,63.2673 L519.9985,41.0683 C519.9985,39.9473 519.9205,39.0283 519.7635,38.3103 C519.6055,37.5933 519.3365,37.0213 518.9565,36.5943 C518.5745,36.1693 518.0695,35.8543 517.4425,35.6533 C516.8135,35.4503 516.0075,35.3053 515.0205,35.2153 L513.0695,34.9463 L512.8685,33.8703 L528.0045,33.8703 L527.8025,34.9463 L525.9185,35.2153 C524.3485,35.3503 523.2495,35.8323 522.6225,36.6613 C521.9935,37.4923 521.6815,39.0733 521.6815,41.4043 L521.4785,76.3183 L519.1245,76.3183 L490.5345,40.8663 Z" id="Fill-15" fill="#003E73"></path>
                <path d="M538.7005,40.8663 L538.4985,40.8663 L538.5655,68.7833 C538.5655,69.9053 538.6435,70.8133 538.8015,71.5083 C538.9575,72.2033 539.2265,72.7633 539.6085,73.1893 C539.9885,73.6163 540.5055,73.9293 541.1555,74.1313 C541.8045,74.3333 542.6015,74.4793 543.5445,74.5693 L545.5615,74.8383 L545.7635,75.9143 L530.5605,75.9143 L530.7625,74.8383 L532.6455,74.5693 C534.2605,74.4343 535.3705,73.9523 535.9755,73.1223 C536.5815,72.2933 536.8845,70.7343 536.8845,68.4473 L537.0865,39.9913 C536.4135,38.8263 535.5945,37.8173 534.6305,36.9643 C533.6655,36.1133 532.5335,35.5743 531.2335,35.3503 L529.8205,34.9463 L529.6185,33.8703 L544.6205,33.8703 L568.0305,63.2673 L568.2315,63.2673 L568.1645,41.0683 C568.1645,39.9473 568.0865,39.0283 567.9295,38.3103 C567.7715,37.5933 567.5025,37.0213 567.1225,36.5943 C566.7405,36.1693 566.2355,35.8543 565.6085,35.6533 C564.9795,35.4503 564.1735,35.3053 563.1865,35.2153 L561.2355,34.9463 L561.0345,33.8703 L576.1705,33.8703 L575.9685,34.9463 L574.0845,35.2153 C572.5135,35.3503 571.4155,35.8323 570.7885,36.6613 C570.1595,37.4923 569.8465,39.0733 569.8465,41.4043 L569.6445,76.3183 L567.2905,76.3183 L538.7005,40.8663 Z" id="Fill-17" fill="#003E73"></path>
                <path d="M181.8748,107.7315 C180.5118,107.7315 179.2568,107.5165 178.1088,107.0875 C176.9608,106.6585 175.9718,106.0515 175.1408,105.2675 C174.3108,104.4835 173.6618,103.5455 173.1948,102.4535 C172.7288,101.3615 172.4948,100.1435 172.4948,98.7995 C172.4948,97.4375 172.7288,96.1815 173.1948,95.0335 C173.6618,93.8855 174.3148,92.8965 175.1548,92.0655 C175.9948,91.2345 176.9938,90.5855 178.1508,90.1195 C179.3078,89.6525 180.5868,89.4195 181.9868,89.4195 C182.9388,89.4195 183.7838,89.5225 184.5208,89.7265 C185.2578,89.9315 185.9168,90.1735 186.4948,90.4535 L188.0068,89.8655 L188.2868,94.8795 L187.8948,94.8795 L186.2708,91.0155 C185.8968,90.7545 185.3418,90.5025 184.6048,90.2595 C183.8678,90.0175 182.9758,89.8955 181.9308,89.8955 C180.7918,89.8955 179.7558,90.1095 178.8228,90.5375 C177.8898,90.9655 177.0908,91.5655 176.4288,92.3375 C175.7658,93.1095 175.2568,94.0215 174.9028,95.0725 C174.5478,96.1245 174.3708,97.2825 174.3708,98.5475 C174.3708,99.8315 174.5478,101.0085 174.9028,102.0785 C175.2568,103.1485 175.7618,104.0645 176.4148,104.8275 C177.0678,105.5905 177.8568,106.1855 178.7808,106.6135 C179.7048,107.0415 180.7458,107.2555 181.9028,107.2555 C182.6308,107.2555 183.2708,107.1855 183.8208,107.0455 C184.3718,106.9055 184.8708,106.7005 185.3188,106.4295 C185.7668,106.1595 186.1678,105.8365 186.5228,105.4635 C186.8768,105.0905 187.2128,104.6705 187.5308,104.2035 L188.3428,102.2715 L188.7628,102.2715 L187.8108,106.6115 L186.8588,106.6395 C186.2988,106.9005 185.5618,107.1485 184.6468,107.3815 C183.7318,107.6145 182.8078,107.7315 181.8748,107.7315" id="Fill-20" fill="#003E73"></path>
                <path d="M203.6585,107.2276 C204.7035,107.2276 205.6605,107.0326 206.5285,106.6416 C207.3965,106.2506 208.1385,105.6836 208.7545,104.9386 C209.3705,104.1946 209.8505,103.2966 210.1965,102.2456 C210.5415,101.1946 210.7145,100.0176 210.7145,98.7146 C210.7145,97.3756 210.5285,96.1656 210.1545,95.0866 C209.7815,94.0076 209.2725,93.0816 208.6285,92.3106 C207.9845,91.5376 207.2285,90.9426 206.3605,90.5236 C205.4925,90.1046 204.5545,89.8956 203.5465,89.8956 C202.5195,89.8956 201.5725,90.0956 200.7045,90.4956 C199.8365,90.8956 199.0905,91.4726 198.4645,92.2266 C197.8395,92.9796 197.3535,93.8866 197.0085,94.9476 C196.6625,96.0076 196.4905,97.2076 196.4905,98.5476 C196.4905,99.8686 196.6725,101.0636 197.0365,102.1336 C197.4005,103.2046 197.9045,104.1156 198.5485,104.8696 C199.1925,105.6226 199.9525,106.2046 200.8305,106.6136 C201.7075,107.0226 202.6505,107.2276 203.6585,107.2276 M203.6025,107.7036 C202.3145,107.7036 201.1195,107.4836 200.0185,107.0456 C198.9175,106.6066 197.9655,105.9916 197.1625,105.1976 C196.3595,104.4046 195.7295,103.4476 195.2725,102.3276 C194.8155,101.2076 194.5865,99.9756 194.5865,98.6316 C194.5865,97.3806 194.8285,96.2006 195.3145,95.0896 C195.8005,93.9786 196.4525,93.0036 197.2745,92.1636 C198.0965,91.3236 199.0485,90.6566 200.1305,90.1616 C201.2135,89.6666 202.3515,89.4196 203.5465,89.4196 C204.8345,89.4196 206.0295,89.6436 207.1305,90.0916 C208.2315,90.5396 209.1885,91.1656 210.0005,91.9676 C210.8125,92.7696 211.4475,93.7366 211.9045,94.8656 C212.3625,95.9956 212.5905,97.2416 212.5905,98.6036 C212.5905,99.8356 212.3475,101.0066 211.8625,102.1176 C211.3775,103.2276 210.7235,104.1946 209.9025,105.0156 C209.0805,105.8366 208.1295,106.4906 207.0465,106.9756 C205.9635,107.4606 204.8155,107.7036 203.6025,107.7036" id="Fill-22" fill="#003E73"></path>
                <path d="M217.9666,106.9473 L219.2826,106.8633 C219.7306,106.8263 220.0806,106.7653 220.3326,106.6813 C220.5846,106.5973 220.7106,106.4533 220.7106,106.2473 L221.2146,90.7633 C221.0836,90.6703 220.8876,90.5913 220.6266,90.5253 C220.3646,90.4603 220.0946,90.4093 219.8146,90.3713 L218.4426,90.2313 L218.3586,89.8393 L223.1466,89.8393 L228.9706,104.6793 L229.0266,104.6793 L234.9626,89.8393 L239.4986,89.8393 L239.4426,90.2313 L237.7346,90.3153 C237.3986,90.3533 237.1786,90.4093 237.0766,90.4833 C236.9736,90.5583 236.9126,90.6333 236.8946,90.7073 L237.2306,106.5273 C237.2306,106.6213 237.2956,106.6953 237.4266,106.7513 C237.5566,106.8073 237.8746,106.8543 238.3786,106.8913 L239.6106,106.9473 L239.6946,107.3393 L232.9466,107.3393 L233.0306,106.9473 L234.6826,106.8633 C235.0186,106.8453 235.2426,106.7983 235.3546,106.7233 C235.4666,106.6493 235.5226,106.5653 235.5226,106.4713 L235.1586,91.0153 L235.0746,91.0153 L228.5226,107.1713 L228.1866,107.1713 L222.1106,91.6313 C222.0546,91.5013 221.9846,91.3893 221.9006,91.2953 C221.8166,91.2023 221.7556,91.1183 221.7186,91.0433 L221.2986,106.2753 C221.2986,106.6303 221.9326,106.8263 223.2026,106.8633 L224.2666,106.9473 L224.3506,107.3393 L217.8826,107.3393 L217.9666,106.9473 Z" id="Fill-24" fill="#003E73"></path>
                <path d="M244.7063,106.9473 L246.0223,106.8633 C246.4703,106.8263 246.8203,106.7653 247.0723,106.6813 C247.3243,106.5973 247.4503,106.4533 247.4503,106.2473 L247.9543,90.7633 C247.8233,90.6703 247.6273,90.5913 247.3663,90.5253 C247.1043,90.4603 246.8343,90.4093 246.5543,90.3713 L245.1823,90.2313 L245.0983,89.8393 L249.8863,89.8393 L255.7103,104.6793 L255.7663,104.6793 L261.7023,89.8393 L266.2383,89.8393 L266.1823,90.2313 L264.4743,90.3153 C264.1383,90.3533 263.9183,90.4093 263.8163,90.4833 C263.7133,90.5583 263.6523,90.6333 263.6343,90.7073 L263.9703,106.5273 C263.9703,106.6213 264.0353,106.6953 264.1663,106.7513 C264.2963,106.8073 264.6143,106.8543 265.1183,106.8913 L266.3503,106.9473 L266.4343,107.3393 L259.6863,107.3393 L259.7703,106.9473 L261.4223,106.8633 C261.7583,106.8453 261.9823,106.7983 262.0943,106.7233 C262.2063,106.6493 262.2623,106.5653 262.2623,106.4713 L261.8983,91.0153 L261.8143,91.0153 L255.2623,107.1713 L254.9263,107.1713 L248.8503,91.6313 C248.7943,91.5013 248.7243,91.3893 248.6403,91.2953 C248.5563,91.2023 248.4953,91.1183 248.4583,91.0433 L248.0383,106.2753 C248.0383,106.6303 248.6723,106.8263 249.9423,106.8633 L251.0063,106.9473 L251.0903,107.3393 L244.6223,107.3393 L244.7063,106.9473 Z" id="Fill-26" fill="#003E73"></path>
                <path d="M271.7542,106.9473 L273.2102,106.8073 C273.5652,106.7693 273.8122,106.7273 273.9522,106.6813 C274.0922,106.6353 274.1622,106.5643 274.1622,106.4703 L274.1622,90.6243 C274.1622,90.5303 274.1012,90.4653 273.9802,90.4273 C273.8582,90.3903 273.5372,90.3533 273.0142,90.3153 L271.7822,90.2093 L271.6982,89.8393 L284.2142,89.8393 L284.6622,94.3753 L284.3262,94.3753 L284.0182,93.1713 C283.8312,92.6303 283.6212,92.1733 283.3882,91.7993 C283.1542,91.4263 282.8652,91.1233 282.5202,90.8893 C282.1742,90.6563 281.7452,90.4883 281.2322,90.3853 C280.7182,90.2833 280.0792,90.2313 279.3142,90.2313 L275.8702,90.2313 L275.8702,97.9033 L278.6702,97.9033 C279.2492,97.8843 279.7062,97.8523 280.0422,97.8053 C280.3782,97.7593 280.6392,97.6793 280.8262,97.5673 C281.0122,97.4553 281.1522,97.2973 281.2462,97.0913 C281.3392,96.8863 281.4332,96.6253 281.5262,96.3073 L281.8062,95.4953 L282.1142,95.5233 L281.5822,100.8713 L281.2742,100.8433 L281.2182,100.0873 C281.1992,99.7143 281.1622,99.4203 281.1062,99.2053 C281.0502,98.9913 280.9382,98.8273 280.7702,98.7153 C280.6022,98.6033 280.3402,98.5293 279.9862,98.4913 C279.6312,98.4543 279.1462,98.4263 278.5302,98.4073 L275.8702,98.3793 L275.8702,106.8073 L279.3422,106.8913 C280.3312,106.8913 281.1392,106.8123 281.7642,106.6533 C282.3892,106.4953 282.8982,106.2753 283.2902,105.9953 C283.6822,105.7153 283.9992,105.3793 284.2422,104.9873 C284.4842,104.5953 284.6992,104.1563 284.8862,103.6713 L285.2222,102.4953 L285.6422,102.5233 L284.5782,107.3393 L271.6702,107.3393 L271.7542,106.9473 Z" id="Fill-28" fill="#003E73"></path>
                <path d="M298.4378,98.5474 C299.6318,98.4734 300.6028,98.0694 301.3498,97.3384 C302.0958,96.6054 302.4698,95.5994 302.4698,94.3204 C302.4698,93.0414 302.0258,92.0404 301.1398,91.3164 C300.2528,90.5934 298.9418,90.2594 297.2058,90.3154 L295.5258,90.3714 L295.5258,98.1304 C295.6938,98.1864 295.8988,98.2364 296.1418,98.2834 C296.3838,98.3294 296.6458,98.3764 296.9258,98.4224 C297.2058,98.4684 297.4808,98.5014 297.7508,98.5204 C298.0218,98.5384 298.2508,98.5474 298.4378,98.5474 L298.4378,98.5474 Z M291.2128,106.9474 L292.8368,106.8074 C293.0428,106.7894 293.2578,106.7524 293.4818,106.6954 C293.7058,106.6394 293.8178,106.5654 293.8178,106.4724 L293.8178,90.6784 C293.8178,90.5864 293.7568,90.5204 293.6358,90.4834 C293.5138,90.4464 293.1828,90.4094 292.6418,90.3714 L291.2418,90.2594 L291.1578,89.8394 L298.0178,89.8394 C300.0708,89.8394 301.6288,90.2264 302.6938,91.0004 C303.7578,91.7744 304.2898,92.8144 304.2898,94.1194 C304.2898,94.7164 304.1778,95.2714 303.9538,95.7834 C303.7298,96.2964 303.4168,96.7534 303.0158,97.1544 C302.6138,97.5554 302.1428,97.9004 301.6018,98.1894 C301.0598,98.4784 300.4718,98.7074 299.8368,98.8744 L304.1218,105.4614 C304.3268,105.7604 304.4998,105.9994 304.6398,106.1764 C304.7798,106.3544 304.9238,106.4944 305.0738,106.5974 C305.2228,106.7004 305.3768,106.7704 305.5358,106.8074 C305.6938,106.8454 305.8858,106.8634 306.1098,106.8634 L306.8938,106.9474 L307.0048,107.3394 L303.3098,107.3394 L302.8338,106.4994 L298.1578,99.0234 C298.0078,99.0234 297.8118,99.0134 297.5698,98.9934 C297.3268,98.9744 297.0798,98.9494 296.8278,98.9194 C296.5758,98.8894 296.3338,98.8554 296.0998,98.8154 C295.8658,98.7764 295.6748,98.7264 295.5258,98.6664 L295.5258,106.5264 C295.5258,106.6204 295.6608,106.6854 295.9318,106.7234 C296.2028,106.7604 296.4588,106.7984 296.7018,106.8354 L298.1018,106.9474 L298.1858,107.3394 L291.1288,107.3394 L291.2128,106.9474 Z" id="Fill-30" fill="#003E73"></path>
                <path d="M320.5305,107.7315 C319.1675,107.7315 317.9125,107.5165 316.7635,107.0875 C315.6165,106.6585 314.6265,106.0515 313.7965,105.2675 C312.9655,104.4835 312.3165,103.5455 311.8495,102.4535 C311.3835,101.3615 311.1505,100.1435 311.1505,98.7995 C311.1505,97.4375 311.3835,96.1815 311.8495,95.0335 C312.3165,93.8855 312.9695,92.8965 313.8095,92.0655 C314.6505,91.2345 315.6485,90.5855 316.8055,90.1195 C317.9635,89.6525 319.2425,89.4195 320.6415,89.4195 C321.5935,89.4195 322.4385,89.5225 323.1765,89.7265 C323.9135,89.9315 324.5715,90.1735 325.1505,90.4535 L326.6625,89.8655 L326.9425,94.8795 L326.5505,94.8795 L324.9265,91.0155 C324.5525,90.7545 323.9975,90.5025 323.2595,90.2595 C322.5225,90.0175 321.6315,89.8955 320.5865,89.8955 C319.4475,89.8955 318.4115,90.1095 317.4775,90.5375 C316.5445,90.9655 315.7465,91.5655 315.0845,92.3375 C314.4215,93.1095 313.9125,94.0215 313.5575,95.0725 C313.2035,96.1245 313.0265,97.2825 313.0265,98.5475 C313.0265,99.8315 313.2035,101.0085 313.5575,102.0785 C313.9125,103.1485 314.4165,104.0645 315.0705,104.8275 C315.7225,105.5905 316.5115,106.1855 317.4355,106.6135 C318.3605,107.0415 319.4005,107.2555 320.5575,107.2555 C321.2865,107.2555 321.9255,107.1855 322.4755,107.0455 C323.0265,106.9055 323.5265,106.7005 323.9735,106.4295 C324.4225,106.1595 324.8235,105.8365 325.1775,105.4635 C325.5325,105.0905 325.8685,104.6705 326.1855,104.2035 L326.9985,102.2715 L327.4185,102.2715 L326.4665,106.6115 L325.5135,106.6395 C324.9545,106.9005 324.2165,107.1485 323.3015,107.3815 C322.3865,107.6145 321.4635,107.7315 320.5305,107.7315" id="Fill-32" fill="#003E73"></path>
                <path d="M333.3821,106.9473 L334.8941,106.8073 C335.2671,106.7703 335.5241,106.7283 335.6641,106.6813 C335.8041,106.6353 335.8741,106.5653 335.8741,106.4713 L335.8741,90.6513 C335.8741,90.5583 335.8131,90.4933 335.6921,90.4553 C335.5701,90.4183 335.2391,90.3813 334.6971,90.3433 L333.4101,90.2313 L333.3261,89.8393 L340.1571,89.8393 L340.0731,90.2313 L338.5621,90.3713 C338.1891,90.4093 337.9321,90.4513 337.7921,90.4973 C337.6521,90.5443 337.5821,90.6143 337.5821,90.7073 L337.5821,106.5273 C337.5821,106.6213 337.6471,106.6863 337.7781,106.7233 C337.9081,106.7603 338.2361,106.7983 338.7581,106.8353 L340.0461,106.9473 L340.1301,107.3393 L333.2981,107.3393 L333.3821,106.9473 Z" id="Fill-34" fill="#003E73"></path>
                <path d="M355.4593,98.3472 C355.3373,97.9722 355.1933,97.5462 355.0253,97.0692 C354.8573,96.5912 354.6883,96.1092 354.5213,95.6212 C354.1293,94.4602 353.6713,93.1482 353.1493,91.6872 L353.0933,91.6872 L350.2933,99.5832 L355.8653,99.5832 C355.7163,99.1342 355.5803,98.7222 355.4593,98.3472 L355.4593,98.3472 Z M348.4453,104.7352 C348.2773,105.1832 348.1603,105.5382 348.0953,105.7992 C348.0293,106.0612 348.0293,106.2662 348.0953,106.4152 C348.1603,106.5652 348.3053,106.6672 348.5293,106.7232 C348.7533,106.7792 349.0793,106.8262 349.5093,106.8632 L350.5453,106.9472 L350.6293,107.3392 L344.8893,107.3392 L344.9733,106.9472 L345.8413,106.8632 C346.1583,106.8262 346.4153,106.7652 346.6113,106.6812 C346.8073,106.5972 346.9893,106.4392 347.1573,106.2052 C347.3253,105.9722 347.5023,105.6312 347.6883,105.1832 C347.8753,104.7352 348.1183,104.1192 348.4173,103.3352 L352.7853,91.2112 L352.5893,90.5112 C352.7753,90.4372 352.9993,90.3112 353.2613,90.1332 C353.5223,89.9562 353.6993,89.7742 353.7933,89.5872 L354.0453,89.5872 L359.6453,105.4352 C359.7573,105.7152 359.8513,105.9442 359.9253,106.1212 C359.9993,106.2992 360.0883,106.4392 360.1913,106.5412 C360.2933,106.6442 360.4193,106.7192 360.5693,106.7652 C360.7183,106.8122 360.9143,106.8452 361.1573,106.8632 L362.3053,106.9472 L362.3893,107.3392 L355.8093,107.3392 L355.8933,106.9472 L357.1533,106.8912 C357.4513,106.8732 357.7183,106.8122 357.9513,106.7092 C358.1853,106.6072 358.2543,106.4252 358.1613,106.1632 L356.0613,100.0592 L350.1253,100.0592 L348.4453,104.7352 Z" id="Fill-36" fill="#003E73"></path>
                <path d="M367.177,106.9473 L368.549,106.8073 C368.904,106.7703 369.152,106.7283 369.291,106.6813 C369.431,106.6353 369.501,106.5653 369.501,106.4713 L369.501,90.6513 C369.501,90.5583 369.441,90.4933 369.32,90.4553 C369.198,90.4183 368.875,90.3813 368.353,90.3433 L367.205,90.2313 L367.121,89.8393 L374.177,89.8393 L374.093,90.2313 L372.189,90.3713 C371.816,90.4093 371.559,90.4603 371.419,90.5253 C371.28,90.5913 371.209,90.6613 371.209,90.7353 L371.209,106.8073 L374.009,106.8633 C374.998,106.8633 375.801,106.7893 376.417,106.6393 C377.033,106.4903 377.537,106.2753 377.929,105.9953 C378.322,105.7153 378.634,105.3793 378.867,104.9873 C379.101,104.5953 379.32,104.1563 379.526,103.6713 L379.889,102.2713 L380.309,102.2713 L379.217,107.3393 L367.093,107.3393 L367.177,106.9473 Z" id="Fill-38" fill="#003E73"></path>
                <path d="M400.7766,106.8912 C400.8886,106.8732 400.9916,106.8632 401.0856,106.8632 L401.1976,106.8632 C401.9436,106.8072 402.5836,106.6572 403.1156,106.4142 C403.6466,106.1712 404.0816,105.8572 404.4176,105.4732 C404.7536,105.0892 405.0006,104.6542 405.1596,104.1672 C405.3176,103.6802 405.3966,103.1652 405.3966,102.6212 C405.3966,101.9482 405.2656,101.3342 405.0056,100.7822 C404.7436,100.2292 404.3756,99.7572 403.8986,99.3632 C403.4226,98.9702 402.8486,98.6662 402.1766,98.4512 C401.5056,98.2352 400.7676,98.1272 399.9646,98.1272 L399.5316,98.1272 C399.3356,98.1272 399.1296,98.1322 398.9156,98.1412 C398.7006,98.1512 398.4996,98.1602 398.3126,98.1692 C398.1266,98.1792 397.9956,98.1832 397.9216,98.1832 L397.9216,106.5262 L400.3296,106.9472 L400.7766,106.8912 Z M399.8526,97.6512 C401.3826,97.6142 402.5456,97.2362 403.3396,96.5172 C404.1316,95.7992 404.5296,94.9352 404.5296,93.9272 C404.5296,91.5192 402.9796,90.3152 399.8806,90.3152 L397.9216,90.3152 L397.9216,97.6792 L399.8526,97.6512 Z M393.8886,106.9752 L395.2326,106.8352 C395.6066,106.7982 395.8636,106.7562 396.0036,106.7092 C396.1426,106.6622 396.2136,106.5922 396.2136,106.4982 L396.2136,90.6532 C396.2136,90.5592 396.1526,90.4892 396.0316,90.4422 C395.9096,90.3952 395.5786,90.3532 395.0376,90.3152 L393.9176,90.2032 L393.8336,89.8392 L400.4136,89.8392 C402.3916,89.8392 403.8806,90.1832 404.8796,90.8722 C405.8776,91.5602 406.3776,92.4622 406.3776,93.5782 C406.3776,94.0622 406.2936,94.5272 406.1256,94.9742 C405.9576,95.4192 405.6856,95.8292 405.3126,96.2012 C404.9396,96.5732 404.4546,96.8942 403.8566,97.1632 C403.2586,97.4332 402.5226,97.6332 401.6446,97.7632 L401.6446,97.8592 C403.5106,97.9912 404.9076,98.4822 405.8316,99.3322 C406.7556,100.1832 407.2166,101.2252 407.2166,102.4592 C407.2166,103.9932 406.6246,105.1892 405.4386,106.0492 C404.2536,106.9092 402.5876,107.3392 400.4406,107.3392 L393.8046,107.3392 L393.8886,106.9752 Z" id="Fill-40" fill="#003E73"></path>
                <path d="M420.1809,98.5474 C421.3749,98.4734 422.3459,98.0694 423.0929,97.3384 C423.8389,96.6054 424.2129,95.5994 424.2129,94.3204 C424.2129,93.0414 423.7689,92.0404 422.8829,91.3164 C421.9959,90.5934 420.6849,90.2594 418.9489,90.3154 L417.2689,90.3714 L417.2689,98.1304 C417.4369,98.1864 417.6419,98.2364 417.8849,98.2834 C418.1269,98.3294 418.3889,98.3764 418.6689,98.4224 C418.9489,98.4684 419.2239,98.5014 419.4939,98.5204 C419.7649,98.5384 419.9939,98.5474 420.1809,98.5474 L420.1809,98.5474 Z M412.9559,106.9474 L414.5799,106.8074 C414.7859,106.7894 415.0009,106.7524 415.2249,106.6954 C415.4489,106.6394 415.5609,106.5654 415.5609,106.4724 L415.5609,90.6784 C415.5609,90.5864 415.4999,90.5204 415.3789,90.4834 C415.2569,90.4464 414.9259,90.4094 414.3849,90.3714 L412.9849,90.2594 L412.9009,89.8394 L419.7609,89.8394 C421.8139,89.8394 423.3719,90.2264 424.4369,91.0004 C425.5009,91.7744 426.0329,92.8144 426.0329,94.1194 C426.0329,94.7164 425.9209,95.2714 425.6969,95.7834 C425.4729,96.2964 425.1599,96.7534 424.7589,97.1544 C424.3569,97.5554 423.8859,97.9004 423.3449,98.1894 C422.8029,98.4784 422.2149,98.7074 421.5799,98.8744 L425.8649,105.4614 C426.0699,105.7604 426.2429,105.9994 426.3829,106.1764 C426.5229,106.3544 426.6669,106.4944 426.8169,106.5974 C426.9659,106.7004 427.1199,106.7704 427.2789,106.8074 C427.4369,106.8454 427.6289,106.8634 427.8529,106.8634 L428.6369,106.9474 L428.7479,107.3394 L425.0529,107.3394 L424.5769,106.4994 L419.9009,99.0234 C419.7509,99.0234 419.5549,99.0134 419.3129,98.9934 C419.0699,98.9744 418.8229,98.9494 418.5709,98.9194 C418.3189,98.8894 418.0769,98.8554 417.8429,98.8154 C417.6089,98.7764 417.4179,98.7264 417.2689,98.6664 L417.2689,106.5264 C417.2689,106.6204 417.4039,106.6854 417.6749,106.7234 C417.9459,106.7604 418.2019,106.7984 418.4449,106.8354 L419.8449,106.9474 L419.9289,107.3394 L412.8719,107.3394 L412.9559,106.9474 Z" id="Fill-42" fill="#003E73"></path>
                <path d="M441.9641,107.2276 C443.0101,107.2276 443.9661,107.0326 444.8341,106.6416 C445.7021,106.2506 446.4441,105.6836 447.0611,104.9386 C447.6761,104.1946 448.1561,103.2966 448.5021,102.2456 C448.8481,101.1946 449.0211,100.0176 449.0211,98.7146 C449.0211,97.3756 448.8331,96.1656 448.4601,95.0866 C448.0871,94.0076 447.5781,93.0816 446.9351,92.3106 C446.2901,91.5376 445.5341,90.9426 444.6661,90.5236 C443.7981,90.1046 442.8601,89.8956 441.8531,89.8956 C440.8251,89.8956 439.8781,90.0956 439.0101,90.4956 C438.1431,90.8956 437.3961,91.4726 436.7711,92.2266 C436.1451,92.9796 435.6591,93.8866 435.3151,94.9476 C434.9691,96.0076 434.7961,97.2076 434.7961,98.5476 C434.7961,99.8686 434.9791,101.0636 435.3421,102.1336 C435.7061,103.2046 436.2101,104.1156 436.8551,104.8696 C437.4981,105.6226 438.2591,106.2046 439.1361,106.6136 C440.0141,107.0226 440.9561,107.2276 441.9641,107.2276 M441.9081,107.7036 C440.6201,107.7036 439.4251,107.4836 438.3241,107.0456 C437.2231,106.6066 436.2711,105.9916 435.4681,105.1976 C434.6651,104.4046 434.0351,103.4476 433.5781,102.3276 C433.1201,101.2076 432.8931,99.9756 432.8931,98.6316 C432.8931,97.3806 433.1351,96.2006 433.6201,95.0896 C434.1061,93.9786 434.7591,93.0036 435.5801,92.1636 C436.4021,91.3236 437.3541,90.6566 438.4371,90.1616 C439.5191,89.6666 440.6571,89.4196 441.8531,89.4196 C443.1401,89.4196 444.3341,89.6436 445.4371,90.0916 C446.5371,90.5396 447.4941,91.1656 448.3061,91.9676 C449.1181,92.7696 449.7531,93.7366 450.2101,94.8656 C450.6671,95.9956 450.8971,97.2416 450.8971,98.6036 C450.8971,99.8356 450.6531,101.0066 450.1681,102.1176 C449.6831,103.2276 449.0291,104.1946 448.2081,105.0156 C447.3871,105.8366 446.4351,106.4906 445.3531,106.9756 C444.2701,107.4606 443.1211,107.7036 441.9081,107.7036" id="Fill-44" fill="#003E73"></path>
                <path d="M456.6634,106.9473 L458.0074,106.8073 C458.3814,106.7693 458.6384,106.7273 458.7774,106.6813 C458.9174,106.6353 458.9874,106.5643 458.9874,106.4703 L458.9874,90.6243 C458.9874,90.5303 458.9274,90.4653 458.8064,90.4273 C458.6844,90.3903 458.3524,90.3533 457.8114,90.3153 L456.6914,90.2093 L456.6074,89.8393 L463.1874,89.8393 L463.1034,90.2033 L461.6754,90.3433 C461.3024,90.3813 461.0454,90.4233 460.9054,90.4693 C460.7664,90.5163 460.6954,90.5863 460.6954,90.6803 L460.6954,99.8353 L466.5194,93.7973 C467.3044,93.0113 467.8954,92.3933 468.2974,91.9443 C468.6984,91.4943 468.9364,91.1583 469.0124,90.9333 C469.0864,90.7083 469.0204,90.5593 468.8154,90.4843 C468.6094,90.4093 468.2834,90.3533 467.8354,90.3153 L466.4914,90.2033 L466.4074,89.8393 L472.7644,89.8393 L472.6804,90.2033 L471.9514,90.2593 C471.7084,90.2783 471.5034,90.2923 471.3354,90.3013 C471.1674,90.3113 471.0094,90.3483 470.8594,90.4133 C470.7104,90.4793 470.5474,90.5823 470.3694,90.7223 C470.1914,90.8633 469.9634,91.0683 469.6844,91.3393 C469.4034,91.6113 469.0584,91.9613 468.6474,92.3913 C468.2364,92.8213 467.7144,93.3633 467.0794,94.0173 L464.7554,96.4023 L470.6634,105.4323 C470.8684,105.7693 471.0364,106.0313 471.1674,106.2183 C471.2984,106.4053 471.4194,106.5413 471.5314,106.6253 C471.6434,106.7093 471.7694,106.7653 471.9094,106.7933 C472.0494,106.8213 472.2314,106.8453 472.4554,106.8633 L473.3514,106.9473 L473.4354,107.3393 L467.1914,107.3393 L467.3044,106.9473 L468.2834,106.8633 C468.7684,106.8263 469.0344,106.6863 469.0814,106.4433 C469.1284,106.2013 469.0864,105.9773 468.9554,105.7713 L463.6634,97.5113 L460.6954,100.5073 L460.6954,106.5273 C460.6954,106.6213 460.7614,106.6863 460.8924,106.7233 C461.0214,106.7603 461.3494,106.7983 461.8714,106.8353 L463.0754,106.9473 L463.1594,107.3393 L456.5794,107.3393 L456.6634,106.9473 Z" id="Fill-46" fill="#003E73"></path>
                <path d="M478.3352,106.9473 L479.7912,106.8073 C480.1462,106.7693 480.3942,106.7273 480.5332,106.6813 C480.6732,106.6353 480.7432,106.5643 480.7432,106.4703 L480.7432,90.6243 C480.7432,90.5303 480.6832,90.4653 480.5622,90.4273 C480.4392,90.3903 480.1172,90.3533 479.5952,90.3153 L478.3632,90.2093 L478.2792,89.8393 L490.7952,89.8393 L491.2432,94.3753 L490.9072,94.3753 L490.5992,93.1713 C490.4122,92.6303 490.2022,92.1733 489.9692,91.7993 C489.7352,91.4263 489.4462,91.1233 489.1022,90.8893 C488.7562,90.6563 488.3262,90.4883 487.8142,90.3853 C487.3002,90.2833 486.6602,90.2313 485.8962,90.2313 L482.4512,90.2313 L482.4512,97.9033 L485.2512,97.9033 C485.8292,97.8843 486.2872,97.8523 486.6232,97.8053 C486.9592,97.7593 487.2212,97.6793 487.4072,97.5673 C487.5942,97.4553 487.7332,97.2973 487.8272,97.0913 C487.9202,96.8863 488.0142,96.6253 488.1072,96.3073 L488.3872,95.4953 L488.6952,95.5233 L488.1632,100.8713 L487.8562,100.8433 L487.7992,100.0873 C487.7802,99.7143 487.7432,99.4203 487.6882,99.2053 C487.6312,98.9913 487.5202,98.8273 487.3522,98.7153 C487.1842,98.6033 486.9222,98.5293 486.5672,98.4913 C486.2122,98.4543 485.7282,98.4263 485.1112,98.4073 L482.4512,98.3793 L482.4512,106.8073 L485.9232,106.8913 C486.9122,106.8913 487.7202,106.8123 488.3452,106.6533 C488.9712,106.4953 489.4802,106.2753 489.8712,105.9953 C490.2632,105.7153 490.5802,105.3793 490.8232,104.9873 C491.0652,104.5953 491.2802,104.1563 491.4672,103.6713 L491.8032,102.4953 L492.2232,102.5233 L491.1592,107.3393 L478.2512,107.3393 L478.3352,106.9473 Z" id="Fill-48" fill="#003E73"></path>
                <path d="M505.0188,98.5474 C506.2128,98.4734 507.1838,98.0694 507.9308,97.3384 C508.6768,96.6054 509.0508,95.5994 509.0508,94.3204 C509.0508,93.0414 508.6068,92.0404 507.7208,91.3164 C506.8338,90.5934 505.5228,90.2594 503.7868,90.3154 L502.1068,90.3714 L502.1068,98.1304 C502.2748,98.1864 502.4798,98.2364 502.7228,98.2834 C502.9648,98.3294 503.2268,98.3764 503.5068,98.4224 C503.7868,98.4684 504.0618,98.5014 504.3318,98.5204 C504.6028,98.5384 504.8318,98.5474 505.0188,98.5474 L505.0188,98.5474 Z M497.7938,106.9474 L499.4178,106.8074 C499.6238,106.7894 499.8388,106.7524 500.0628,106.6954 C500.2868,106.6394 500.3988,106.5654 500.3988,106.4724 L500.3988,90.6784 C500.3988,90.5864 500.3378,90.5204 500.2168,90.4834 C500.0948,90.4464 499.7638,90.4094 499.2228,90.3714 L497.8228,90.2594 L497.7388,89.8394 L504.5988,89.8394 C506.6518,89.8394 508.2098,90.2264 509.2748,91.0004 C510.3388,91.7744 510.8708,92.8144 510.8708,94.1194 C510.8708,94.7164 510.7588,95.2714 510.5348,95.7834 C510.3108,96.2964 509.9978,96.7534 509.5968,97.1544 C509.1948,97.5554 508.7238,97.9004 508.1828,98.1894 C507.6408,98.4784 507.0528,98.7074 506.4178,98.8744 L510.7028,105.4614 C510.9078,105.7604 511.0808,105.9994 511.2208,106.1764 C511.3608,106.3544 511.5048,106.4944 511.6548,106.5974 C511.8038,106.7004 511.9578,106.7704 512.1168,106.8074 C512.2748,106.8454 512.4668,106.8634 512.6908,106.8634 L513.4748,106.9474 L513.5858,107.3394 L509.8908,107.3394 L509.4148,106.4994 L504.7388,99.0234 C504.5888,99.0234 504.3928,99.0134 504.1508,98.9934 C503.9078,98.9744 503.6608,98.9494 503.4088,98.9194 C503.1568,98.8894 502.9148,98.8554 502.6808,98.8154 C502.4468,98.7764 502.2558,98.7264 502.1068,98.6664 L502.1068,106.5264 C502.1068,106.6204 502.2418,106.6854 502.5128,106.7234 C502.7838,106.7604 503.0398,106.7984 503.2828,106.8354 L504.6828,106.9474 L504.7668,107.3394 L497.7098,107.3394 L497.7938,106.9474 Z" id="Fill-50" fill="#003E73"></path>
                <path d="M527.4056,98.3472 C527.2836,97.9722 527.1396,97.5462 526.9716,97.0692 C526.8036,96.5912 526.6346,96.1092 526.4676,95.6212 C526.0756,94.4602 525.6176,93.1482 525.0956,91.6872 L525.0396,91.6872 L522.2396,99.5832 L527.8116,99.5832 C527.6626,99.1342 527.5266,98.7222 527.4056,98.3472 L527.4056,98.3472 Z M520.3916,104.7352 C520.2236,105.1832 520.1066,105.5382 520.0416,105.7992 C519.9756,106.0612 519.9756,106.2662 520.0416,106.4152 C520.1066,106.5652 520.2516,106.6672 520.4756,106.7232 C520.6996,106.7792 521.0256,106.8262 521.4556,106.8632 L522.4916,106.9472 L522.5756,107.3392 L516.8356,107.3392 L516.9196,106.9472 L517.7876,106.8632 C518.1046,106.8262 518.3616,106.7652 518.5576,106.6812 C518.7536,106.5972 518.9356,106.4392 519.1036,106.2052 C519.2716,105.9722 519.4486,105.6312 519.6346,105.1832 C519.8216,104.7352 520.0646,104.1192 520.3636,103.3352 L524.7316,91.2112 L524.5356,90.5112 C524.7216,90.4372 524.9456,90.3112 525.2076,90.1332 C525.4686,89.9562 525.6456,89.7742 525.7396,89.5872 L525.9916,89.5872 L531.5916,105.4352 C531.7036,105.7152 531.7976,105.9442 531.8716,106.1212 C531.9456,106.2992 532.0346,106.4392 532.1376,106.5412 C532.2396,106.6442 532.3656,106.7192 532.5156,106.7652 C532.6646,106.8122 532.8606,106.8452 533.1036,106.8632 L534.2516,106.9472 L534.3356,107.3392 L527.7556,107.3392 L527.8396,106.9472 L529.0996,106.8912 C529.3976,106.8732 529.6646,106.8122 529.8976,106.7092 C530.1316,106.6072 530.2006,106.4252 530.1076,106.1632 L528.0076,100.0592 L522.0716,100.0592 L520.3916,104.7352 Z" id="Fill-52" fill="#003E73"></path>
                <path d="M547.2708,107.7593 C545.9078,107.7593 544.6478,107.5443 543.4908,107.1153 C542.3338,106.6863 541.3348,106.0893 540.4948,105.3233 C539.6548,104.5583 539.0008,103.6293 538.5348,102.5373 C538.0678,101.4453 537.8348,100.2463 537.8348,98.9393 C537.8348,97.5773 538.0678,96.3123 538.5348,95.1453 C539.0008,93.9793 539.6548,92.9713 540.4948,92.1213 C541.3348,91.2723 542.3378,90.6053 543.5048,90.1193 C544.6708,89.6343 545.9548,89.3913 547.3548,89.3913 C548.2888,89.3913 549.1188,89.4943 549.8468,89.6993 C550.5748,89.9053 551.2278,90.1473 551.8068,90.4273 L553.3468,89.8393 L553.4028,94.7673 L553.0108,94.7673 L551.5828,90.9873 C551.2088,90.7263 550.6638,90.4743 549.9448,90.2313 C549.2258,89.9883 548.3158,89.8673 547.2148,89.8673 C546.0948,89.8673 545.0728,90.0873 544.1488,90.5273 C543.2248,90.9663 542.4358,91.5783 541.7828,92.3633 C541.1288,93.1493 540.6208,94.0793 540.2568,95.1543 C539.8928,96.2293 539.7108,97.4023 539.7108,98.6733 C539.7108,99.9633 539.8968,101.1363 540.2708,102.1933 C540.6438,103.2493 541.1668,104.1563 541.8388,104.9133 C542.5108,105.6713 543.3228,106.2553 544.2748,106.6663 C545.2268,107.0773 546.2818,107.2833 547.4388,107.2833 C547.7928,107.2833 548.1628,107.2603 548.5448,107.2133 C548.9268,107.1663 549.2958,107.1063 549.6508,107.0303 C550.0048,106.9553 550.3368,106.8663 550.6448,106.7633 C550.9528,106.6603 551.2088,106.5433 551.4148,106.4113 L551.4148,100.5363 C551.4148,100.4433 551.3398,100.3783 551.1908,100.3403 C551.0418,100.3023 550.7058,100.2653 550.1828,100.2273 L548.6428,100.1213 L548.5588,99.7513 L555.4468,99.7513 L555.3628,100.1153 L554.0468,100.2553 C553.6728,100.2933 553.4168,100.3353 553.2768,100.3813 C553.1368,100.4283 553.0668,100.4983 553.0668,100.5913 L553.0668,105.9953 L554.8028,105.8273 L554.8308,106.1353 C554.2898,106.3413 553.6968,106.5413 553.0528,106.7373 C552.4088,106.9333 551.7498,107.1063 551.0788,107.2553 C550.4068,107.4053 549.7448,107.5263 549.0908,107.6193 C548.4368,107.7123 547.8308,107.7593 547.2708,107.7593" id="Fill-54" fill="#003E73"></path>
                <path d="M560.6819,106.9473 L562.1379,106.8073 C562.4929,106.7693 562.7409,106.7273 562.8799,106.6813 C563.0199,106.6353 563.0899,106.5643 563.0899,106.4703 L563.0899,90.6243 C563.0899,90.5303 563.0299,90.4653 562.9089,90.4273 C562.7859,90.3903 562.4639,90.3533 561.9419,90.3153 L560.7099,90.2093 L560.6259,89.8393 L573.1419,89.8393 L573.5899,94.3753 L573.2539,94.3753 L572.9459,93.1713 C572.7589,92.6303 572.5489,92.1733 572.3159,91.7993 C572.0819,91.4263 571.7929,91.1233 571.4489,90.8893 C571.1029,90.6563 570.6729,90.4883 570.1609,90.3853 C569.6469,90.2833 569.0069,90.2313 568.2429,90.2313 L564.7979,90.2313 L564.7979,97.9033 L567.5979,97.9033 C568.1759,97.8843 568.6339,97.8523 568.9699,97.8053 C569.3059,97.7593 569.5679,97.6793 569.7539,97.5673 C569.9409,97.4553 570.0799,97.2973 570.1739,97.0913 C570.2669,96.8863 570.3609,96.6253 570.4539,96.3073 L570.7339,95.4953 L571.0419,95.5233 L570.5099,100.8713 L570.2029,100.8433 L570.1459,100.0873 C570.1269,99.7143 570.0899,99.4203 570.0349,99.2053 C569.9779,98.9913 569.8669,98.8273 569.6989,98.7153 C569.5309,98.6033 569.2689,98.5293 568.9139,98.4913 C568.5589,98.4543 568.0749,98.4263 567.4579,98.4073 L564.7979,98.3793 L564.7979,106.8073 L568.2699,106.8913 C569.2589,106.8913 570.0669,106.8123 570.6919,106.6533 C571.3179,106.4953 571.8269,106.2753 572.2179,105.9953 C572.6099,105.7153 572.9269,105.3793 573.1699,104.9873 C573.4119,104.5953 573.6269,104.1563 573.8139,103.6713 L574.1499,102.4953 L574.5699,102.5233 L573.5059,107.3393 L560.5979,107.3393 L560.6819,106.9473 Z" id="Fill-56" fill="#003E73"></path>
                <rect id="Rectangle" fill="url(#linearGradient-1)" x="0" y="0" width="148" height="148" rx="5"></rect>
                <path d="M38.6568,87.1429 C40.3898,87.1429 42.3728,85.7599 44.6068,82.9929 C46.8398,80.2269 49.4898,75.9429 52.5568,70.1429 C52.7568,69.6769 53.0228,69.0429 53.3568,68.2429 C53.6898,67.4429 54.0068,66.6269 54.3068,65.7929 C54.6068,64.9599 54.8568,64.1769 55.0568,63.4429 C55.2568,62.7099 55.3568,62.2099 55.3568,61.9429 C55.1568,60.8769 54.7898,59.8279 54.2568,58.7929 C53.7218,57.7599 53.0568,56.8429 52.2568,56.0429 C51.4568,55.2429 50.5898,54.5929 49.6568,54.0929 C48.7218,53.5929 47.7898,53.3429 46.8568,53.3429 C46.1228,53.3429 45.5068,53.5099 45.0068,53.8429 C44.5068,54.1769 43.9568,54.6099 43.3568,55.1429 C42.2898,56.2099 41.2398,57.7429 40.2068,59.7429 C39.1728,61.7429 38.2218,63.9099 37.3568,66.2429 C36.4898,68.5779 35.7898,70.9769 35.2568,73.4429 C34.7218,75.9099 34.4568,78.1429 34.4568,80.1429 C34.4568,82.4099 34.8228,84.1429 35.5568,85.3429 C36.2898,86.5429 37.3228,87.1429 38.6568,87.1429 M56.7568,94.5429 C56.1568,94.5429 55.3728,94.3259 54.4068,93.8929 C53.4398,93.4579 52.4898,92.9269 51.5568,92.2929 C50.6228,91.6599 49.8228,91.0099 49.1568,90.3429 C48.4898,89.6769 48.1568,89.1099 48.1568,88.6429 C48.1568,87.6429 48.5728,85.8279 49.4068,83.1929 C50.2398,80.5599 51.3898,77.2429 52.8568,73.2429 L52.4568,73.2429 C50.5228,76.5779 48.7568,79.5429 47.1568,82.1429 C45.5568,84.7429 44.0398,86.9429 42.6068,88.7429 C41.1728,90.5429 39.7398,91.9269 38.3068,92.8929 C36.8728,93.8589 35.3228,94.3429 33.6568,94.3429 C30.7898,94.3429 28.3568,93.3429 26.3568,91.3429 C24.3568,89.3429 23.3568,86.6099 23.3568,83.1429 C23.3568,80.7429 23.7218,78.3099 24.4568,75.8429 C25.1898,73.3769 26.1728,70.9599 27.4068,68.5929 C28.6398,66.2269 30.0898,63.9429 31.7568,61.7429 C33.4228,59.5429 35.1568,57.5099 36.9568,55.6429 C39.4228,53.1769 41.8228,51.2929 44.1568,49.9929 C46.4898,48.6929 48.7218,48.0429 50.8568,48.0429 C51.9898,48.0429 52.9228,48.3429 53.6568,48.9429 C54.3898,49.5429 54.9718,50.3429 55.4068,51.3429 C55.8398,52.3429 56.1228,53.4929 56.2568,54.7929 C56.3898,56.0929 56.4568,57.4099 56.4568,58.7429 L56.9568,58.7429 L64.4568,33.4429 C64.5898,32.7769 64.6068,32.1929 64.5068,31.6929 C64.4068,31.1929 64.1568,30.9099 63.7568,30.8429 L55.7568,29.8429 L56.0568,28.5429 L77.5568,25.7429 L64.3568,68.0429 L58.4568,87.2429 L62.9568,87.9429 L69.7568,79.1429 L70.6568,79.9429 C69.5898,82.1429 68.4398,84.1269 67.2068,85.8929 C65.9718,87.6599 64.7398,89.1929 63.5068,90.4929 C62.2728,91.7929 61.0728,92.7929 59.9068,93.4929 C58.7398,94.1929 57.6898,94.5429 56.7568,94.5429" id="Fill-62" fill="#FEFEFE"></path>
                <path d="M99.2564,92.4427 C100.1224,92.4427 100.9724,92.2107 101.8064,91.7417 C102.6394,91.2747 103.4224,90.6727 104.1564,89.9367 C105.4224,88.6667 106.6564,86.9287 107.8564,84.7227 C109.0564,82.5167 110.1064,80.1597 111.0064,77.6537 C111.9064,75.1477 112.6224,72.6067 113.1564,70.0337 C113.6894,67.4607 113.9564,65.1717 113.9564,63.1647 C113.9564,60.3587 113.4894,58.2867 112.5564,56.9487 C111.6224,55.6117 110.4224,54.9427 108.9564,54.9427 C107.8224,54.9427 106.6564,55.5117 105.4564,56.6477 C104.2564,57.7847 103.0224,59.3557 101.7564,61.3597 C100.4894,63.3667 99.2064,65.7727 97.9064,68.5787 C96.6064,71.3867 95.2894,74.4947 93.9564,77.9037 C93.8224,78.2377 93.6394,78.7567 93.4064,79.4587 C93.1724,80.1617 92.9564,80.9137 92.7564,81.7147 C92.5564,82.5177 92.3724,83.2867 92.2064,84.0207 C92.0394,84.7567 91.9564,85.2917 91.9564,85.6247 C92.1564,86.4267 92.5064,87.2287 93.0064,88.0317 C93.5064,88.8357 94.0894,89.5697 94.7564,90.2377 C95.4224,90.9067 96.1394,91.4417 96.9064,91.8407 C97.6724,92.2427 98.4564,92.4427 99.2564,92.4427 L99.2564,92.4427 Z M66.8564,116.5427 L69.5564,116.1427 C70.8904,116.0097 71.8234,115.8277 72.3564,115.5947 C72.8904,115.3597 73.2234,114.9777 73.3564,114.4457 L89.8564,55.2427 L85.5564,54.8427 L79.0564,64.2427 L78.0564,63.3427 C79.0564,61.1427 80.1564,59.1097 81.3564,57.2427 C82.5564,55.3777 83.7724,53.7597 85.0064,52.3927 C86.2394,51.0267 87.4564,49.9607 88.6564,49.1927 C89.8564,48.4267 90.9894,48.0427 92.0564,48.0427 C92.5894,48.0427 93.3224,48.2597 94.2564,48.6927 C95.1894,49.1277 96.1064,49.6597 97.0064,50.2927 C97.9064,50.9267 98.6894,51.6097 99.3564,52.3427 C100.0224,53.0777 100.3564,53.7767 100.3564,54.4427 C100.3564,55.6427 100.0564,57.1927 99.4564,59.0927 C98.8564,60.9927 98.2564,62.8097 97.6564,64.5427 L98.2564,64.5427 C100.9224,58.8777 103.5224,54.7277 106.0564,52.0927 C108.5894,49.4607 111.4564,48.1427 114.6564,48.1427 C117.6564,48.1427 120.0724,49.4927 121.9064,52.1927 C123.7394,54.8927 124.6564,58.3777 124.6564,62.6427 C124.6564,66.4427 123.9224,70.2427 122.4564,74.0427 C120.9894,77.8427 119.0564,81.2597 116.6564,84.2927 C114.2564,87.3277 111.5064,89.7927 108.4064,91.6927 C105.3064,93.5927 102.0894,94.5427 98.7564,94.5427 C97.1564,94.5427 95.6724,94.0927 94.3064,93.1927 C92.9394,92.2927 91.8894,91.1427 91.1564,89.7427 L90.7564,89.7427 L83.9564,114.5487 C83.8224,115.0127 84.0724,115.3617 84.7064,115.5947 C85.3394,115.8257 86.5894,116.0087 88.4564,116.1427 L92.6564,116.5637 L92.7564,118.2427 L66.5564,118.2427 L66.8564,116.5427 Z" id="Fill-64" fill="#FEFEFE"></path>
            </g>
        </g>
    </g>
</svg>